<?xml version="1.0" encoding="UTF-8"?>
<svg version="1.1" xmlns="http://www.w3.org/2000/svg" width="435" height="573">
<path d="M0 0 C8.58618087 4.5149805 12.19279849 12.55870961 15.36328125 21.2265625 C15.75 22.24886963 16.13671875 23.27117676 16.53515625 24.32446289 C18.9609115 30.77646649 21.29744054 37.26125657 23.55029297 43.77563477 C26.09392735 51.11411596 28.85338818 58.37070036 31.6171875 65.62866211 C33.86895399 71.57510862 35.95226498 77.55499147 37.93896484 83.5949707 C39.56979376 88.45859704 41.44971078 93.22029752 43.30078125 98.00390625 C44.96695327 102.48587141 46.31922295 107.05453815 47.70751953 111.62866211 C48.98666924 115.7490157 50.33359022 119.84259046 51.703125 123.93359375 C51.95430084 124.68390366 52.20547668 125.43421356 52.46426392 126.20726013 C53.50064968 129.2980444 54.53976944 132.38790656 55.57885742 135.4777832 C58.74478382 144.89973183 61.83277655 154.33590813 64.75073242 163.83789062 C66.13364228 168.20542159 67.67003054 172.50565313 69.26171875 176.80078125 C69.86328125 179.3515625 69.86328125 179.3515625 68.86328125 184.3515625 C65.56328125 185.0115625 62.26328125 185.6715625 58.86328125 186.3515625 C59.60154545 190.04288349 59.99812787 191.98898403 61.640625 195.09375 C61.98931641 195.76792969 62.33800781 196.44210938 62.69726562 197.13671875 C63.42886518 198.52222587 64.1606341 199.90764357 64.89257812 201.29296875 C67.11191939 205.58451263 68.93315142 209.58976577 69.86328125 214.3515625 C69.20328125 215.3415625 68.54328125 216.3315625 67.86328125 217.3515625 C65.26171875 217.86328125 65.26171875 217.86328125 62.23828125 218.0390625 C61.23539063 218.10480469 60.2325 218.17054688 59.19921875 218.23828125 C58.42835938 218.27566406 57.6575 218.31304687 56.86328125 218.3515625 C57.13140625 218.87621094 57.39953125 219.40085938 57.67578125 219.94140625 C60.59145958 225.70562558 63.40359861 231.5172998 66.17578125 237.3515625 C66.53736328 238.1055835 66.89894531 238.85960449 67.27148438 239.63647461 C69.86328125 245.11916968 69.86328125 245.11916968 69.86328125 247.3515625 C71.06082031 247.37734375 72.25835937 247.403125 73.4921875 247.4296875 C84.20302876 247.76243218 93.62976915 248.98095269 103.86328125 252.3515625 C105.19552734 252.74794922 105.19552734 252.74794922 106.5546875 253.15234375 C124.0299 259.07091492 133.931624 274.31224792 142.74316406 289.44677734 C144.52960656 292.48466409 146.38242666 295.48074489 148.23828125 298.4765625 C149.44845589 300.43375852 150.65696728 302.39198461 151.86328125 304.3515625 C152.4253125 305.24230469 152.98734375 306.13304687 153.56640625 307.05078125 C155.0893589 309.75264604 155.35841116 311.29826141 154.86328125 314.3515625 C151.82802639 316.37506574 150.66901923 316.67280268 147.17578125 316.9765625 C145.96341797 317.08871094 145.96341797 317.08871094 144.7265625 317.203125 C144.11167969 317.25210937 143.49679687 317.30109375 142.86328125 317.3515625 C143.394375 318.41375 143.92546875 319.4759375 144.47265625 320.5703125 C148.72265625 329.0703125 148.72265625 329.0703125 149.78417969 331.20507812 C150.51460636 332.65799923 151.25786691 334.10452716 152.01269531 335.54492188 C152.37588867 336.24423828 152.73908203 336.94355469 153.11328125 337.6640625 C153.44328125 338.28925781 153.77328125 338.91445313 154.11328125 339.55859375 C155.2128212 342.18718145 155.14309664 344.55340865 154.86328125 347.3515625 C152.21869746 348.67385439 150.18566824 348.44833444 147.23828125 348.4140625 C146.23539062 348.40503906 145.2325 348.39601563 144.19921875 348.38671875 C143.04292969 348.36931641 143.04292969 348.36931641 141.86328125 348.3515625 C142.21519531 349.05539062 142.56710937 349.75921875 142.9296875 350.484375 C143.97656331 352.57812662 145.02060041 354.6732989 146.0625 356.76953125 C147.28822916 359.2243887 148.5441797 361.6608302 149.8203125 364.08984375 C150.13991943 364.70649902 150.45952637 365.3231543 150.78881836 365.95849609 C151.70062801 367.71646699 152.62160577 369.46967343 153.54296875 371.22265625 C154.83627429 374.28756079 155.33612229 376.08203968 154.86328125 379.3515625 C152.86328125 381.3515625 152.86328125 381.3515625 150.26171875 381.546875 C148.76511719 381.51207031 148.76511719 381.51207031 147.23828125 381.4765625 C146.23539062 381.45851563 145.2325 381.44046875 144.19921875 381.421875 C143.04292969 381.38707031 143.04292969 381.38707031 141.86328125 381.3515625 C142.72705079 383.07910157 143.59089394 384.80660386 144.45507812 386.53393555 C145.18815031 388.00089663 145.91991251 389.46851305 146.65039062 390.93676758 C148.2406812 394.12970667 149.84163309 397.31058011 151.5078125 400.46484375 C151.95511719 401.31433594 152.40242188 402.16382813 152.86328125 403.0390625 C153.25515625 403.76480469 153.64703125 404.49054688 154.05078125 405.23828125 C155.03721827 407.80396601 155.22474756 409.6270102 154.86328125 412.3515625 C151.44233883 414.63219078 150.18140903 414.57081257 146.17578125 414.4765625 C145.18191406 414.45851563 144.18804687 414.44046875 143.1640625 414.421875 C142.40480469 414.39867187 141.64554687 414.37546875 140.86328125 414.3515625 C140.89808594 415.28355469 140.93289063 416.21554687 140.96875 417.17578125 C141.20387958 428.24926459 141.15355437 439.77553661 133.59765625 448.640625 C126.46152876 455.68031834 118.87376458 459.75910672 108.76171875 460.41015625 C100.11825638 460.23542318 92.29562172 457.10553938 85.86328125 451.3515625 C77.50560391 442.09899046 76.62264025 433.297968 76.6953125 421.234375 C76.83855547 418.77592581 77.15470027 416.69838269 77.86328125 414.3515625 C76.49042969 414.36896484 76.49042969 414.36896484 75.08984375 414.38671875 C73.30707031 414.40025391 73.30707031 414.40025391 71.48828125 414.4140625 C70.30492187 414.42566406 69.1215625 414.43726563 67.90234375 414.44921875 C64.86328125 414.3515625 64.86328125 414.3515625 62.86328125 413.3515625 C62.39733517 407.27057129 63.74310114 403.66651665 66.55078125 398.4765625 C66.91365234 397.77982422 67.27652344 397.08308594 67.65039062 396.36523438 C68.70505959 394.35143484 69.77927602 392.34969541 70.86328125 390.3515625 C71.40597656 389.34867187 71.94867188 388.34578125 72.5078125 387.3125 C73.60836704 385.31437503 74.7221008 383.3266825 75.86328125 381.3515625 C75.09242188 381.36316406 74.3215625 381.37476563 73.52734375 381.38671875 C72.02300781 381.40025391 72.02300781 381.40025391 70.48828125 381.4140625 C69.49054688 381.42566406 68.4928125 381.43726563 67.46484375 381.44921875 C64.86328125 381.3515625 64.86328125 381.3515625 62.86328125 380.3515625 C62.86328125 371.55889349 66.73563305 364.91679471 70.80419922 357.35864258 C72.20070533 354.71210575 73.52504461 352.02803577 74.86328125 349.3515625 C52.75328125 349.3515625 30.64328125 349.3515625 7.86328125 349.3515625 C13.77487877 361.89459453 13.77487877 361.89459453 19.86328125 374.3515625 C20.17578125 377.1015625 20.17578125 377.1015625 19.86328125 379.3515625 C17.86328125 381.3515625 17.86328125 381.3515625 15.26171875 381.546875 C13.76511719 381.51207031 13.76511719 381.51207031 12.23828125 381.4765625 C11.23539063 381.45851563 10.2325 381.44046875 9.19921875 381.421875 C8.04292969 381.38707031 8.04292969 381.38707031 6.86328125 381.3515625 C7.72705079 383.07910157 8.59089394 384.80660386 9.45507812 386.53393555 C10.18815031 388.00089663 10.91991251 389.46851305 11.65039062 390.93676758 C13.2406812 394.12970667 14.84163309 397.31058011 16.5078125 400.46484375 C16.95511719 401.31433594 17.40242187 402.16382813 17.86328125 403.0390625 C18.25515625 403.76480469 18.64703125 404.49054688 19.05078125 405.23828125 C20.03721827 407.80396601 20.22474756 409.6270102 19.86328125 412.3515625 C16.44233883 414.63219078 15.18140903 414.57081257 11.17578125 414.4765625 C10.18191406 414.45851563 9.18804687 414.44046875 8.1640625 414.421875 C7.40480469 414.39867187 6.64554687 414.37546875 5.86328125 414.3515625 C5.9096875 415.42792969 5.95609375 416.50429688 6.00390625 417.61328125 C6.35350476 429.12884433 5.87490179 439.88388761 -1.63671875 449.2890625 C-8.69111947 456.31752792 -16.4038942 459.88747165 -26.32421875 459.9765625 C-32.65881365 459.83736517 -37.73082864 458.6719907 -43.13671875 455.3515625 C-44.16796875 454.8359375 -45.19921875 454.3203125 -46.26171875 453.7890625 C-52.04606318 448.8849444 -56.33807024 441.72078262 -58.13671875 434.3515625 C-58.36144099 430.88781492 -58.32605194 427.4456058 -58.26171875 423.9765625 C-58.25269531 423.04972656 -58.24367187 422.12289063 -58.234375 421.16796875 C-58.21094812 418.89556173 -58.17814623 416.6237007 -58.13671875 414.3515625 C-58.97976562 414.37476563 -59.8228125 414.39796875 -60.69140625 414.421875 C-61.78710938 414.43992187 -62.8828125 414.45796875 -64.01171875 414.4765625 C-65.10226563 414.49976563 -66.1928125 414.52296875 -67.31640625 414.546875 C-70.13671875 414.3515625 -70.13671875 414.3515625 -72.13671875 412.3515625 C-71.97624207 408.33964558 -71.18057585 405.16645587 -69.34765625 401.640625 C-68.81132568 400.59672607 -68.81132568 400.59672607 -68.26416016 399.53173828 C-67.89210449 398.81228027 -67.52004883 398.09282227 -67.13671875 397.3515625 C-66.42097064 395.92558452 -65.70741474 394.49850402 -64.99609375 393.0703125 C-63.04296875 389.1640625 -61.08984375 385.2578125 -59.13671875 381.3515625 C-59.90757813 381.37476563 -60.6784375 381.39796875 -61.47265625 381.421875 C-62.47554687 381.43992187 -63.4784375 381.45796875 -64.51171875 381.4765625 C-65.50945312 381.49976563 -66.5071875 381.52296875 -67.53515625 381.546875 C-70.13671875 381.3515625 -70.13671875 381.3515625 -72.13671875 379.3515625 C-71.97624207 375.33964558 -71.18057585 372.16645587 -69.34765625 368.640625 C-68.81132568 367.59672607 -68.81132568 367.59672607 -68.26416016 366.53173828 C-67.89210449 365.81228027 -67.52004883 365.09282227 -67.13671875 364.3515625 C-66.42097064 362.92558452 -65.70741474 361.49850402 -64.99609375 360.0703125 C-63.04296875 356.1640625 -61.08984375 352.2578125 -59.13671875 348.3515625 C-59.90757813 348.37476563 -60.6784375 348.39796875 -61.47265625 348.421875 C-62.47554687 348.43992187 -63.4784375 348.45796875 -64.51171875 348.4765625 C-65.50945312 348.49976563 -66.5071875 348.52296875 -67.53515625 348.546875 C-70.13671875 348.3515625 -70.13671875 348.3515625 -72.13671875 346.3515625 C-72.00129314 339.85113309 -69.13559596 334.99230773 -66.13671875 329.3515625 C-65.02734684 327.14583947 -63.92317403 324.93749385 -62.82421875 322.7265625 C-61.92838542 320.93489583 -61.03255208 319.14322917 -60.13671875 317.3515625 C-60.75160156 317.30257813 -61.36648437 317.25359375 -62 317.203125 C-62.80824219 317.12835938 -63.61648437 317.05359375 -64.44921875 316.9765625 C-65.24972656 316.90695312 -66.05023438 316.83734375 -66.875 316.765625 C-69.13671875 316.3515625 -69.13671875 316.3515625 -72.13671875 314.3515625 C-71.622423 308.51775992 -69.90083735 304.07961985 -67.32421875 298.8515625 C-66.98068359 298.13097656 -66.63714844 297.41039062 -66.28320312 296.66796875 C-64.08704046 292.1108282 -61.69255259 287.7165821 -59.13671875 283.3515625 C-59.99136719 283.29097656 -60.84601563 283.23039062 -61.7265625 283.16796875 C-62.83128906 283.08417969 -63.93601563 283.00039063 -65.07421875 282.9140625 C-66.17636719 282.83285156 -67.27851562 282.75164062 -68.4140625 282.66796875 C-71.13671875 282.3515625 -71.13671875 282.3515625 -72.13671875 281.3515625 C-71.76815542 275.57986083 -69.9503001 271.35303921 -67.26171875 266.2890625 C-66.73384766 265.2671582 -66.73384766 265.2671582 -66.1953125 264.22460938 C-65.50679391 262.8923643 -64.81454203 261.56204051 -64.11816406 260.23388672 C-62.75701602 257.62332667 -61.44509081 254.9888785 -60.13671875 252.3515625 C-61.79048586 250.69779539 -63.94620239 250.71685042 -66.19921875 250.2890625 C-67.11832031 250.11246094 -68.03742188 249.93585938 -68.984375 249.75390625 C-69.69464844 249.62113281 -70.40492187 249.48835937 -71.13671875 249.3515625 C-72.2799544 245.30350167 -72.04920197 243.29222334 -70.19921875 239.5390625 C-69.74289063 238.59804688 -69.2865625 237.65703125 -68.81640625 236.6875 C-68.26210937 235.58664062 -67.7078125 234.48578125 -67.13671875 233.3515625 C-66.43035038 231.92740019 -65.7246599 230.50290152 -65.01953125 229.078125 C-63.07497189 225.16089946 -61.11013491 221.25432349 -59.13671875 217.3515625 C-63.09671875 217.3515625 -67.05671875 217.3515625 -71.13671875 217.3515625 C-72.28317358 212.61404498 -72.0353215 210.14876799 -69.86328125 205.8046875 C-69.36828125 204.79535156 -68.87328125 203.78601563 -68.36328125 202.74609375 C-67.83476563 201.70839844 -67.30625 200.67070312 -66.76171875 199.6015625 C-66.2409375 198.54839844 -65.72015625 197.49523437 -65.18359375 196.41015625 C-63.84885288 193.71646936 -62.49791517 191.0319467 -61.13671875 188.3515625 C-60.80671875 187.6915625 -60.47671875 187.0315625 -60.13671875 186.3515625 C-60.87607666 186.28686768 -61.61543457 186.22217285 -62.37719727 186.15551758 C-100.1475189 182.73253627 -100.1475189 182.73253627 -114.13671875 169.3515625 C-118.13430514 163.56458029 -119.71301391 157.20130793 -118.8828125 150.21484375 C-116.78944197 140.31376691 -109.26548176 133.15442371 -101.38671875 127.3125 C-81.49880231 114.83283243 -56.89421462 110.50543223 -34.13671875 106.3515625 C-33.05261719 106.15288574 -31.96851563 105.95420898 -30.8515625 105.74951172 C-28.28050244 105.28036714 -25.70881052 104.81500477 -23.13671875 104.3515625 C-23.20310547 103.74860352 -23.26949219 103.14564453 -23.33789062 102.52441406 C-23.98670442 96.38436232 -24.38809717 90.26963792 -24.63671875 84.1015625 C-24.67732422 83.16280273 -24.71792969 82.22404297 -24.75976562 81.25683594 C-24.93126659 77.28988677 -25.09620312 73.32267141 -25.26171875 69.35546875 C-25.38442347 66.43739714 -25.51050587 63.51948415 -25.63671875 60.6015625 C-25.67216797 59.72209961 -25.70761719 58.84263672 -25.74414062 57.93652344 C-25.9669692 52.79387455 -26.3762836 47.70275705 -26.91610718 42.58398438 C-27.38422778 37.84695872 -27.40395127 33.10766528 -27.44921875 28.3515625 C-27.49272461 26.82789063 -27.49272461 26.82789063 -27.53710938 25.2734375 C-27.6004366 17.67417016 -26.6797941 10.15668711 -21.2980957 4.37695312 C-15.10164873 -1.13099974 -8.14293774 -2.47116575 0 0 Z " fill="#B97EDA" transform="translate(177.13671875,34.6484375)"/>
<path d="M0 0 C8.58618087 4.5149805 12.19279849 12.55870961 15.36328125 21.2265625 C15.75 22.24886963 16.13671875 23.27117676 16.53515625 24.32446289 C18.9609115 30.77646649 21.29744054 37.26125657 23.55029297 43.77563477 C26.09392735 51.11411596 28.85338818 58.37070036 31.6171875 65.62866211 C33.86895399 71.57510862 35.95226498 77.55499147 37.93896484 83.5949707 C39.56979376 88.45859704 41.44971078 93.22029752 43.30078125 98.00390625 C44.96695327 102.48587141 46.31922295 107.05453815 47.70751953 111.62866211 C48.98666924 115.7490157 50.33359022 119.84259046 51.703125 123.93359375 C51.95430084 124.68390366 52.20547668 125.43421356 52.46426392 126.20726013 C53.50064968 129.2980444 54.53976944 132.38790656 55.57885742 135.4777832 C58.74478382 144.89973183 61.83277655 154.33590813 64.75073242 163.83789062 C66.13364228 168.20542159 67.67003054 172.50565313 69.26171875 176.80078125 C69.86328125 179.3515625 69.86328125 179.3515625 68.86328125 184.3515625 C65.56328125 185.0115625 62.26328125 185.6715625 58.86328125 186.3515625 C59.54424417 190.99344232 59.54424417 190.99344232 60.98828125 193.4765625 C61.86328125 195.3515625 61.86328125 195.3515625 60.86328125 198.3515625 C59.85867594 196.22873581 58.85972523 194.10323229 57.86328125 191.9765625 C57.30640625 190.79320312 56.74953125 189.60984375 56.17578125 188.390625 C54.86328125 185.3515625 54.86328125 185.3515625 54.86328125 183.3515625 C40.31195417 183.3887116 25.76087778 183.4488101 11.2097578 183.53546524 C4.45355513 183.57529229 -2.30253045 183.60766599 -9.05883789 183.62255859 C-15.57528024 183.63694332 -22.09141853 183.67201242 -28.60770226 183.71987152 C-31.09763123 183.73474424 -33.58761197 183.74260686 -36.07758522 183.74344635 C-39.55708427 183.7458 -43.03556757 183.77275146 -46.51489258 183.80566406 C-47.55138947 183.8006337 -48.58788635 183.79560333 -49.65579224 183.79042053 C-50.60230148 183.80433334 -51.54881073 183.81824615 -52.52400208 183.83258057 C-53.75874378 183.83811132 -53.75874378 183.83811132 -55.01842976 183.84375381 C-57.88002327 184.52975183 -58.63160278 185.90755927 -60.13671875 188.3515625 C-60.13671875 187.6915625 -60.13671875 187.0315625 -60.13671875 186.3515625 C-60.87607666 186.28686768 -61.61543457 186.22217285 -62.37719727 186.15551758 C-100.1475189 182.73253627 -100.1475189 182.73253627 -114.13671875 169.3515625 C-118.13430514 163.56458029 -119.71301391 157.20130793 -118.8828125 150.21484375 C-116.78944197 140.31376691 -109.26548176 133.15442371 -101.38671875 127.3125 C-81.49880231 114.83283243 -56.89421462 110.50543223 -34.13671875 106.3515625 C-33.05261719 106.15288574 -31.96851563 105.95420898 -30.8515625 105.74951172 C-28.28050244 105.28036714 -25.70881052 104.81500477 -23.13671875 104.3515625 C-23.20310547 103.74860352 -23.26949219 103.14564453 -23.33789062 102.52441406 C-23.98670442 96.38436232 -24.38809717 90.26963792 -24.63671875 84.1015625 C-24.67732422 83.16280273 -24.71792969 82.22404297 -24.75976562 81.25683594 C-24.93126659 77.28988677 -25.09620312 73.32267141 -25.26171875 69.35546875 C-25.38442347 66.43739714 -25.51050587 63.51948415 -25.63671875 60.6015625 C-25.67216797 59.72209961 -25.70761719 58.84263672 -25.74414062 57.93652344 C-25.9669692 52.79387455 -26.3762836 47.70275705 -26.91610718 42.58398438 C-27.38422778 37.84695872 -27.40395127 33.10766528 -27.44921875 28.3515625 C-27.49272461 26.82789063 -27.49272461 26.82789063 -27.53710938 25.2734375 C-27.6004366 17.67417016 -26.6797941 10.15668711 -21.2980957 4.37695312 C-15.10164873 -1.13099974 -8.14293774 -2.47116575 0 0 Z " fill="#FEE378" transform="translate(177.13671875,34.6484375)"/>
<path d="M0 0 C73.59 0 147.18 0 223 0 C223 0.33 223 0.66 223 1 C219.37 1 215.74 1 212 1 C212.35191406 1.70382812 212.70382812 2.40765625 213.06640625 3.1328125 C214.11328206 5.22656412 215.15731916 7.3217364 216.19921875 9.41796875 C217.42494791 11.8728262 218.68089845 14.3092677 219.95703125 16.73828125 C220.27663818 17.35493652 220.59624512 17.9715918 220.92553711 18.60693359 C221.83734676 20.36490449 222.75832452 22.11811093 223.6796875 23.87109375 C224.97299304 26.93599829 225.47284104 28.73047718 225 32 C223 34 223 34 220.3984375 34.1953125 C218.90183594 34.16050781 218.90183594 34.16050781 217.375 34.125 C216.37210938 34.10695313 215.36921875 34.08890625 214.3359375 34.0703125 C213.17964844 34.03550781 213.17964844 34.03550781 212 34 C212.86376954 35.72753907 213.72761269 37.45504136 214.59179688 39.18237305 C215.32486906 40.64933413 216.05663126 42.11695055 216.78710938 43.58520508 C218.37739995 46.77814417 219.97835184 49.95901761 221.64453125 53.11328125 C222.09183594 53.96277344 222.53914062 54.81226563 223 55.6875 C223.391875 56.41324219 223.78375 57.13898438 224.1875 57.88671875 C225.17393702 60.45240351 225.36146631 62.2754477 225 65 C221.57905758 67.28062828 220.31812778 67.21925007 216.3125 67.125 C215.31863281 67.10695313 214.32476562 67.08890625 213.30078125 67.0703125 C212.54152344 67.04710937 211.78226563 67.02390625 211 67 C211.03480469 67.93199219 211.06960938 68.86398437 211.10546875 69.82421875 C211.34059833 80.89770209 211.29027312 92.42397411 203.734375 101.2890625 C196.59824751 108.32875584 189.01048333 112.40754422 178.8984375 113.05859375 C170.25497513 112.88386068 162.43234047 109.75397688 156 104 C147.64232266 94.74742796 146.759359 85.9464055 146.83203125 73.8828125 C146.97527422 71.42436331 147.29141902 69.34682019 148 67 C146.62714844 67.01740234 146.62714844 67.01740234 145.2265625 67.03515625 C143.44378906 67.04869141 143.44378906 67.04869141 141.625 67.0625 C140.44164062 67.07410156 139.25828125 67.08570313 138.0390625 67.09765625 C135 67 135 67 133 66 C132.53405392 59.91900879 133.87981989 56.31495415 136.6875 51.125 C137.05037109 50.42826172 137.41324219 49.73152344 137.78710938 49.01367188 C138.84177834 46.99987234 139.91599477 44.99813291 141 43 C141.81404297 41.49566406 141.81404297 41.49566406 142.64453125 39.9609375 C143.74508579 37.96281253 144.85881955 35.97512 146 34 C145.22914063 34.01160156 144.45828125 34.02320313 143.6640625 34.03515625 C142.15972656 34.04869141 142.15972656 34.04869141 140.625 34.0625 C139.62726563 34.07410156 138.62953125 34.08570313 137.6015625 34.09765625 C135 34 135 34 133 33 C133 24.20733099 136.8723518 17.56523221 140.94091797 10.00708008 C142.33742408 7.36054325 143.66176336 4.67647327 145 2 C122.89 2 100.78 2 78 2 C83.91159752 14.54303203 83.91159752 14.54303203 90 27 C90.3125 29.75 90.3125 29.75 90 32 C88 34 88 34 85.3984375 34.1953125 C84.40070313 34.17210937 83.40296875 34.14890625 82.375 34.125 C81.37210937 34.10695313 80.36921875 34.08890625 79.3359375 34.0703125 C78.17964844 34.03550781 78.17964844 34.03550781 77 34 C77.86376954 35.72753907 78.72761269 37.45504136 79.59179688 39.18237305 C80.32486906 40.64933413 81.05663126 42.11695055 81.78710938 43.58520508 C83.37739995 46.77814417 84.97835184 49.95901761 86.64453125 53.11328125 C87.09183594 53.96277344 87.53914063 54.81226563 88 55.6875 C88.391875 56.41324219 88.78375 57.13898438 89.1875 57.88671875 C90.17393702 60.45240351 90.36146631 62.2754477 90 65 C86.57905758 67.28062828 85.31812778 67.21925007 81.3125 67.125 C80.31863281 67.10695313 79.32476562 67.08890625 78.30078125 67.0703125 C77.54152344 67.04710937 76.78226562 67.02390625 76 67 C76.04640625 68.07636719 76.0928125 69.15273438 76.140625 70.26171875 C76.49022351 81.77728183 76.01162054 92.53232511 68.5 101.9375 C61.44559928 108.96596542 53.73282455 112.53590915 43.8125 112.625 C37.4779051 112.48580267 32.40589011 111.3204282 27 108 C25.96875 107.484375 24.9375 106.96875 23.875 106.4375 C18.09065557 101.5333819 13.79864851 94.36922012 12 87 C11.77527776 83.53625242 11.81066681 80.0940433 11.875 76.625 C11.88402344 75.69816406 11.89304687 74.77132812 11.90234375 73.81640625 C11.92577063 71.54399923 11.95857252 69.2721382 12 67 C11.15695313 67.02320313 10.31390625 67.04640625 9.4453125 67.0703125 C8.34960938 67.08835937 7.25390625 67.10640625 6.125 67.125 C4.48917969 67.15980469 4.48917969 67.15980469 2.8203125 67.1953125 C0 67 0 67 -2 65 C-1.83952332 60.98808308 -1.0438571 57.81489337 0.7890625 54.2890625 C1.14661621 53.59312988 1.50416992 52.89719727 1.87255859 52.18017578 C2.43064209 51.10098877 2.43064209 51.10098877 3 50 C3.71574811 48.57402202 4.42930401 47.14694152 5.140625 45.71875 C7.09375 41.8125 9.046875 37.90625 11 34 C9.84371094 34.03480469 9.84371094 34.03480469 8.6640625 34.0703125 C7.66117188 34.08835937 6.65828125 34.10640625 5.625 34.125 C4.62726563 34.14820313 3.62953125 34.17140625 2.6015625 34.1953125 C0 34 0 34 -2 32 C-1.83952332 27.98808308 -1.0438571 24.81489337 0.7890625 21.2890625 C1.14661621 20.59312988 1.50416992 19.89719727 1.87255859 19.18017578 C2.24461426 18.46071777 2.61666992 17.74125977 3 17 C3.71574811 15.57402202 4.42930401 14.14694152 5.140625 12.71875 C7.09375 8.8125 9.046875 4.90625 11 1 C7.37 1 3.74 1 0 1 C0 0.67 0 0.34 0 0 Z " fill="#FEE179" transform="translate(107,382)"/>
<path d="M0 0 C36.96 0 73.92 0 112 0 C118 13 118 13 118 15 C118.66 15 119.32 15 120 15 C120.98753064 16.72440365 121.96468806 18.45475026 122.9375 20.1875 C123.48277344 21.15042969 124.02804688 22.11335938 124.58984375 23.10546875 C125.92953993 25.85537143 126.7596582 27.95737506 127 31 C126.34 31.99 125.68 32.98 125 34 C122.3984375 34.51171875 122.3984375 34.51171875 119.375 34.6875 C117.87066406 34.78611328 117.87066406 34.78611328 116.3359375 34.88671875 C115.56507813 34.92410156 114.79421875 34.96148437 114 35 C114.50660156 35.92619141 114.50660156 35.92619141 115.0234375 36.87109375 C117.67915513 41.91388705 119.45003642 46.37253091 120.46484375 51.96875 C121.28018503 55.06347601 123.21290115 57.37892169 125 60 C125.3125 62.8125 125.3125 62.8125 125 65 C124 66 124 66 121.72175503 66.12304783 C120.70501737 66.12212604 119.68827971 66.12120424 118.64073181 66.12025452 C117.47820389 66.12162918 116.31567596 66.12300385 115.11791992 66.12442017 C113.83111328 66.12082489 112.54430664 66.11722961 111.21850586 66.11352539 C109.85876976 66.11324352 108.4990335 66.11340125 107.13929749 66.1139679 C103.43698222 66.11425587 99.73469908 66.10835912 96.03239131 66.10139394 C92.16731219 66.09516043 88.30223242 66.0945566 84.43714905 66.09336853 C77.11315318 66.09025521 69.78917216 66.0820418 62.46518284 66.07201904 C54.12916552 66.06085794 45.79314751 66.05534746 37.45712459 66.05032361 C20.30474112 66.03985919 3.15237213 66.02225973 -14 66 C-14.95541626 61.87042627 -14.95465846 60.02622404 -13.0625 56.1875 C-12.60617188 55.24648438 -12.14984375 54.30546875 -11.6796875 53.3359375 C-10.84824219 51.68464844 -10.84824219 51.68464844 -10 50 C-9.29363163 48.57583769 -8.58794115 47.15133902 -7.8828125 45.7265625 C-5.93825314 41.80933696 -3.97341616 37.90276099 -2 34 C-5.96 34 -9.92 34 -14 34 C-15.16029234 29.22956732 -14.87817031 26.75634063 -12.69140625 22.3828125 C-12.19189453 21.36445313 -11.69238281 20.34609375 -11.17773438 19.296875 C-10.64470703 18.25015625 -10.11167969 17.2034375 -9.5625 16.125 C-9.03333984 15.05507812 -8.50417969 13.98515625 -7.95898438 12.8828125 C-6.65326563 10.24784855 -5.33337599 7.62104711 -4 5 C-3.34 5 -2.68 5 -2 5 C-1.34 3.35 -0.68 1.7 0 0 Z " fill="#57A3FD" transform="translate(120,218)"/>
<path d="M0 0 C8.58618087 4.5149805 12.19279849 12.55870961 15.36328125 21.2265625 C15.75 22.24886963 16.13671875 23.27117676 16.53515625 24.32446289 C18.95928392 30.77213746 21.29407311 37.25261423 23.54589844 43.76245117 C26.15210096 51.27999742 28.97676271 58.71509061 31.79296875 66.15600586 C36.88524789 79.63563374 36.88524789 79.63563374 37.98828125 86.7265625 C38.15585938 87.78617187 38.3234375 88.84578125 38.49609375 89.9375 C38.61726563 90.73414062 38.7384375 91.53078125 38.86328125 92.3515625 C32.85998871 94.38246359 27.22777414 95.71974493 20.89453125 96.140625 C18.79702583 96.23784207 18.79702583 96.23784207 16.86328125 97.3515625 C14.86368113 97.3915545 12.86280883 97.39503049 10.86328125 97.3515625 C10.86328125 98.0115625 10.86328125 98.6715625 10.86328125 99.3515625 C9.78691406 99.53332031 8.71054688 99.71507812 7.6015625 99.90234375 C-0.53676143 101.29676354 -8.57835732 102.82133405 -16.59765625 104.80078125 C-19.13671875 105.3515625 -19.13671875 105.3515625 -22.13671875 105.3515625 C-22.21974243 103.92106567 -22.21974243 103.92106567 -22.30444336 102.46166992 C-22.51094026 98.92235651 -22.72280026 95.38338099 -22.9362793 91.84448242 C-23.02791237 90.31299378 -23.11809219 88.78141747 -23.20678711 87.24975586 C-23.33455241 85.04776724 -23.46754645 82.84614718 -23.6015625 80.64453125 C-23.64014877 79.96005417 -23.67873505 79.27557709 -23.7184906 78.57035828 C-23.90276347 75.61746506 -24.19537247 73.17560135 -25.13671875 70.3515625 C-26.70130051 56.06205862 -27.31747371 41.46764975 -27.51171875 27.1015625 C-27.53758057 26.15837158 -27.56344238 25.21518066 -27.59008789 24.2434082 C-27.61009596 17.05276505 -26.34756341 9.8088704 -21.29833984 4.37207031 C-15.09352019 -1.12561357 -8.1464105 -2.47221964 0 0 Z " fill="#BA80DA" transform="translate(177.13671875,34.6484375)"/>
<path d="M0 0 C0 22.44 0 44.88 0 68 C-6.819813 68 -11.66121525 67.92350561 -18.0625 66.5625 C-19.35285156 66.29566406 -20.64320312 66.02882813 -21.97265625 65.75390625 C-25 65 -25 65 -26 64 C-27.03125 63.896875 -28.0625 63.79375 -29.125 63.6875 C-32.75837937 63.04286818 -35.13218257 62.04507542 -38.23828125 60.09765625 C-39.98580633 58.97315138 -39.98580633 58.97315138 -41.85546875 58.05859375 C-47.82139524 55.01838814 -50.13656699 51.46695147 -52.3125 45.25 C-53.64453134 38.90468709 -53.26669767 32.62313643 -50 26.9375 C-39.98165484 12.83235114 -25.07353892 4.44958153 -8.19921875 1.4296875 C-0.88181818 0 -0.88181818 0 0 0 Z " fill="#FB4B68" transform="translate(111,150)"/>
<path d="M0 0 C19.8 0 39.6 0 60 0 C58.6826414 30.2992477 58.6826414 30.2992477 54.0546875 36.68359375 C45.685645 43.41782329 37.97574214 47.36383676 27 47 C19.10508265 45.86592347 13.17185496 42.99194151 7 38 C0 28 0 28 0 0 Z " fill="#FC4163" transform="translate(256,448)"/>
<path d="M0 0 C20.13 0 40.26 0 61 0 C61 29.59309021 61 29.59309021 54.96484375 36.2421875 C54.29582031 36.78101563 53.62679687 37.31984375 52.9375 37.875 C51.93009766 38.70644531 51.93009766 38.70644531 50.90234375 39.5546875 C42.85479604 45.66884079 33.80745044 45.77367358 24 45 C20.5703125 43.984375 20.5703125 43.984375 18 43 C18 42.34 18 41.68 18 41 C16.68 40.34 15.36 39.68 14 39 C14 38.34 14 37.68 14 37 C13.34 37 12.68 37 12 37 C12 36.34 12 35.68 12 35 C11.01 35 10.02 35 9 35 C8.505 33.515 8.505 33.515 8 32 C7.36578125 31.69964844 6.7315625 31.39929688 6.078125 31.08984375 C3.33464845 29.65106563 2.87569085 28.42586442 1.75 25.5625 C0 19 0 19 0 0 Z " fill="#FC4063" transform="translate(120,448)"/>
<path d="M0 0 C41.58 0 83.16 0 126 0 C130 11 130 11 130 16 C124.05364092 18.63187284 118.21024489 18.22703867 111.84423828 18.13525391 C110.01412956 18.12106163 110.01412956 18.12106163 108.14704895 18.10658264 C104.81470382 18.0787445 101.48269341 18.0418418 98.15049982 18.00085878 C94.6632153 17.96012781 91.17583376 17.93105334 87.68844604 17.90072632 C81.09055193 17.84158664 74.49281109 17.77201013 67.89506137 17.69865549 C60.38123421 17.6156261 52.86731023 17.54427477 45.35335565 17.47388959 C29.9020919 17.32889266 14.45102236 17.16886418 -1 17 C-0.67 11.39 -0.34 5.78 0 0 Z " fill="#FED944" transform="translate(113,200)"/>
<path d="M0 0 C1.17369141 -0.00386719 1.17369141 -0.00386719 2.37109375 -0.0078125 C4.5625 0.125 4.5625 0.125 7.5625 1.125 C6.94555543 3.655201 6.26156055 6.12738568 5.51171875 8.625 C4.14970721 14.08822177 4.30918089 19.52691159 4.375 25.125 C4.3759668 26.68734375 4.3759668 26.68734375 4.37695312 28.28125 C4.40534084 33.27748696 4.65784776 38.07845428 5.31227112 43.03842163 C5.72271852 46.46101081 5.91003902 49.89113374 6.09765625 53.33203125 C6.16225792 54.47152222 6.16225792 54.47152222 6.22816467 55.6340332 C6.36425795 58.06833005 6.49519496 60.50286026 6.625 62.9375 C6.66985535 63.76293304 6.71471069 64.58836609 6.76092529 65.43881226 C7.40213878 77.34124709 7.85606205 89.20311881 7.5625 101.125 C4.62583774 101.79555285 1.68827641 102.46159053 -1.25 103.125 C-2.08337891 103.31578125 -2.91675781 103.5065625 -3.77539062 103.703125 C-4.57783203 103.88359375 -5.38027344 104.0640625 -6.20703125 104.25 C-6.94542236 104.41757813 -7.68381348 104.58515625 -8.44458008 104.7578125 C-10.4375 105.125 -10.4375 105.125 -13.4375 105.125 C-13.52052368 103.69450317 -13.52052368 103.69450317 -13.60522461 102.23510742 C-13.81172151 98.69579401 -14.02358151 95.15681849 -14.23706055 91.61791992 C-14.32869362 90.08643128 -14.41887344 88.55485497 -14.50756836 87.02319336 C-14.63533366 84.82120474 -14.7683277 82.61958468 -14.90234375 80.41796875 C-14.94093002 79.73349167 -14.9795163 79.04901459 -15.01927185 78.34379578 C-15.20354472 75.39090256 -15.49615372 72.94903885 -16.4375 70.125 C-16.93568394 65.57502921 -17.19802055 61.00423754 -17.5 56.4375 C-17.54419067 55.77137695 -17.58838135 55.10525391 -17.63391113 54.41894531 C-18.23756294 45.15591666 -18.64590136 35.91025384 -18.6875 26.625 C-18.696604 25.64829346 -18.70570801 24.67158691 -18.71508789 23.6652832 C-18.69377944 18.75085979 -18.37235524 14.73179818 -16.4375 10.125 C-15.7775 10.125 -15.1175 10.125 -14.4375 10.125 C-14.23125 9.568125 -14.025 9.01125 -13.8125 8.4375 C-10.70413825 3.2098007 -6.09236775 -0.02000778 0 0 Z " fill="#A25DCB" transform="translate(168.4375,34.875)"/>
<path d="M0 0 C9.24 0 18.48 0 28 0 C29.26496471 5.05985885 27.64659638 7.397335 25.3125 11.75 C24.78366211 12.76707031 24.78366211 12.76707031 24.24414062 13.8046875 C22.79164247 16.59815745 21.33061683 19.38625519 19.83740234 22.15820312 C19.28947021 23.20137695 19.28947021 23.20137695 18.73046875 24.265625 C18.39813232 24.88727539 18.0657959 25.50892578 17.72338867 26.14941406 C16.75728641 28.28975641 16.75728641 28.28975641 17 32 C20.63 32.33 24.26 32.66 28 33 C28.56675042 38.73047645 26.69860957 42.29830532 24.0625 47.1875 C23.32268573 48.59685258 22.58434402 50.00697939 21.84765625 51.41796875 C21.51773682 52.03438232 21.18781738 52.6507959 20.84790039 53.28588867 C19.86710857 55.17003914 19.86710857 55.17003914 19 58 C18.34 58 17.68 58 17 58 C17 60.31 17 62.62 17 65 C17.62648438 64.98839844 18.25296875 64.97679687 18.8984375 64.96484375 C19.71570313 64.95582031 20.53296875 64.94679688 21.375 64.9375 C22.18710938 64.92589844 22.99921875 64.91429687 23.8359375 64.90234375 C26 65 26 65 28 66 C27.64077112 73.90303525 23.72261092 80.94865073 19.3671875 87.4296875 C17.51517597 90.56013395 17.51517597 90.56013395 17 97 C11.06 97 5.12 97 -1 97 C-1 88.95775564 -0.60740553 86.32935697 3 80 C4.09291907 77.83815277 5.17583981 75.67122902 6.25 73.5 C7.16666667 71.66666667 8.08333333 69.83333333 9 68 C8.07767578 67.92652344 8.07767578 67.92652344 7.13671875 67.8515625 C6.32847656 67.77679688 5.52023438 67.70203125 4.6875 67.625 C3.88699219 67.55539062 3.08648437 67.48578125 2.26171875 67.4140625 C0 67 0 67 -3 65 C-2.48570425 59.16619742 -0.7641186 54.72805735 1.8125 49.5 C2.15603516 48.77941406 2.49957031 48.05882812 2.85351562 47.31640625 C5.04967829 42.7592657 7.44416616 38.3650196 10 34 C9.14535156 33.93941406 8.29070312 33.87882812 7.41015625 33.81640625 C6.30542969 33.73261719 5.20070313 33.64882813 4.0625 33.5625 C2.96035156 33.48128906 1.85820313 33.40007812 0.72265625 33.31640625 C-2 33 -2 33 -3 32 C-2.63143667 26.22829833 -0.81358135 22.00147671 1.875 16.9375 C2.22691406 16.25623047 2.57882813 15.57496094 2.94140625 14.87304688 C3.62992484 13.5408018 4.32217672 12.21047801 5.01855469 10.88232422 C6.37970273 8.27176417 7.69162794 5.637316 9 3 C7.50256881 1.50256881 6.01175761 1.66797307 3.9375 1.4375 C2.638125 1.293125 1.33875 1.14875 0 1 C0 0.67 0 0.34 0 0 Z " fill="#A360CC" transform="translate(108,284)"/>
<path d="M0 0 C7.59 0 15.18 0 23 0 C18.6875 9.0625 18.6875 9.0625 17.34643555 11.87524414 C12.55667185 21.57184879 12.55667185 21.57184879 10 32 C13.63 32 17.26 32 21 32 C22.05053008 37.25265038 22.02491815 37.78923627 19.625 42.125 C18.17946161 44.78188341 16.95908092 47.12275724 16 50 C15.01 50.495 15.01 50.495 14 51 C13.44859215 52.29995115 12.93252233 53.61504905 12.4375 54.9375 C11.17100599 57.64384842 10.625013 58.75266865 7.80859375 59.8671875 C5.375 60.3125 5.375 60.3125 3.0234375 60.55078125 C0.60497939 60.84280691 0.60497939 60.84280691 -1 64 C-4.3 63.67 -7.6 63.34 -11 63 C-5.66666667 41.66666667 -5.66666667 41.66666667 -1 33 C-4.96 33 -8.92 33 -13 33 C-14.16029234 28.22956732 -13.87817031 25.75634063 -11.69140625 21.3828125 C-11.19189453 20.36445313 -10.69238281 19.34609375 -10.17773438 18.296875 C-9.64470703 17.25015625 -9.11167969 16.2034375 -8.5625 15.125 C-8.03333984 14.05507812 -7.50417969 12.98515625 -6.95898438 11.8828125 C-5.65326563 9.24784855 -4.33337599 6.62104711 -3 4 C-2.34 4 -1.68 4 -1 4 C-0.67 2.68 -0.34 1.36 0 0 Z " fill="#2387FC" transform="translate(119,219)"/>
<path d="M0 0 C1.03543945 0.05027344 1.03543945 0.05027344 2.09179688 0.1015625 C3.14463867 0.12863281 3.14463867 0.12863281 4.21875 0.15625 C5.94785123 0.20330037 7.67624893 0.27504377 9.40429688 0.3515625 C8.88018626 4.81477815 8.09839588 8.65255517 6.34179688 12.7890625 C5.97957031 13.65402344 5.61734375 14.51898438 5.24414062 15.41015625 C4.96699219 16.05082031 4.68984375 16.69148438 4.40429688 17.3515625 C3.74429688 17.3515625 3.08429688 17.3515625 2.40429688 17.3515625 C2.28054687 18.3621875 2.15679687 19.3728125 2.02929688 20.4140625 C1.42344352 24.23093862 0.53235776 27.66656362 -0.59570312 31.3515625 C2.70429688 31.6815625 6.00429687 32.0115625 9.40429688 32.3515625 C10.47779479 36.64555415 10.20112504 37.54651463 8.40429688 41.3515625 C7.74429688 41.3515625 7.08429688 41.3515625 6.40429688 41.3515625 C6.09492188 43.053125 6.09492188 43.053125 5.77929688 44.7890625 C4.69077022 49.2457115 2.55689486 52.42631821 -0.15820312 56.078125 C-2.01727791 58.81720314 -2.01727791 58.81720314 -3.59570312 64.3515625 C-8.54570313 64.3515625 -13.49570313 64.3515625 -18.59570312 64.3515625 C-18.92570312 62.7015625 -19.25570312 61.0515625 -19.59570312 59.3515625 C-18.93570313 58.3615625 -18.27570313 57.3715625 -17.59570312 56.3515625 C-17.31858237 54.90157713 -17.09549731 53.44086246 -16.90820312 51.9765625 C-15.66940071 45.05564982 -12.10856922 39.34409878 -8.59570312 33.3515625 C-9.75199219 33.38636719 -9.75199219 33.38636719 -10.93164062 33.421875 C-11.93453125 33.43992187 -12.93742187 33.45796875 -13.97070312 33.4765625 C-14.9684375 33.49976563 -15.96617188 33.52296875 -16.99414062 33.546875 C-19.59570312 33.3515625 -19.59570312 33.3515625 -21.59570312 31.3515625 C-21.38081389 25.76444247 -19.6922583 22.87264305 -16.59570312 18.3515625 C-14.83867568 15.39815454 -13.18069913 12.38835534 -11.5078125 9.38671875 C-10.55638289 7.6973331 -9.5769029 6.02383316 -8.59570312 4.3515625 C-8.17804688 3.55492187 -7.76039062 2.75828125 -7.33007812 1.9375 C-5.01274008 -0.18150732 -3.05310064 -0.05899711 0 0 Z " fill="#FDDA49" transform="translate(126.595703125,382.6484375)"/>
<path d="M0 0 C4.62 0 9.24 0 14 0 C15.05000674 5.25003372 14.87538667 6.19671547 12.8125 10.8125 C12.11640625 12.3903125 12.11640625 12.3903125 11.40625 14 C9.95442521 17.09722623 8.42023391 20.13886002 6.84765625 23.17578125 C5.5186026 26.0360027 4.76383594 28.94465623 4 32 C4.78246094 31.98839844 5.56492187 31.97679687 6.37109375 31.96484375 C7.38300781 31.95582031 8.39492188 31.94679688 9.4375 31.9375 C10.44683594 31.92589844 11.45617187 31.91429687 12.49609375 31.90234375 C15 32 15 32 16 33 C17.00832543 38.95828661 13.04093185 43.8207221 10.19921875 48.76171875 C7.99674049 52.71219564 6.55360408 55.35576553 7 60 C5.75 62.3125 5.75 62.3125 4 64 C2.68 64 1.36 64 0 64 C0 64.66 0 65.32 0 66 C-2.12493141 66.02693575 -4.24995912 66.04636628 -6.375 66.0625 C-7.55835938 66.07410156 -8.74171875 66.08570313 -9.9609375 66.09765625 C-13 66 -13 66 -15 65 C-15.47218621 58.95601647 -14.10109612 55.2775609 -11.25 50 C-10.90195313 49.32710938 -10.55390625 48.65421875 -10.1953125 47.9609375 C-7.90944616 43.57546059 -5.47496486 39.2810203 -3 35 C-2.34 35 -1.68 35 -1 35 C-1 33.68 -1 32.36 -1 31 C-5.29 31 -9.58 31 -14 31 C-12.87464121 24.24784727 -12.87464121 24.24784727 -11.328125 21.23046875 C-10.82925781 20.24433594 -10.82925781 20.24433594 -10.3203125 19.23828125 C-9.96710938 18.56152344 -9.61390625 17.88476562 -9.25 17.1875 C-8.89164063 16.48625 -8.53328125 15.785 -8.1640625 15.0625 C-5.55201894 9.97935049 -2.83555637 4.96222364 0 0 Z " fill="#FDDA47" transform="translate(255,383)"/>
<path d="M0 0 C1.875 0.125 1.875 0.125 4 1 C5.25 4.0625 5.25 4.0625 6 7 C6.66 7 7.32 7 8 7 C8 7.66 8 8.32 8 9 C8.5775 9.28875 9.155 9.5775 9.75 9.875 C11.83333333 10.91666667 13.91666667 11.95833333 16 13 C16 13.99 16 14.98 16 16 C16.78503906 16.19335938 17.57007812 16.38671875 18.37890625 16.5859375 C27.52877454 18.85375762 27.52877454 18.85375762 31.625 20.125 C35.41496627 21.10758385 39.064546 21.46550265 42.9609375 21.75390625 C45 22 45 22 46 23 C46.08669432 24.4887186 46.10703494 25.981445 46.09765625 27.47265625 C46.09443359 28.37177734 46.09121094 29.27089844 46.08789062 30.19726562 C46.07532227 31.61555664 46.07532227 31.61555664 46.0625 33.0625 C46.05798828 34.01189453 46.05347656 34.96128906 46.04882812 35.93945312 C46.0370011 38.29303065 46.02052025 40.64648477 46 43 C40.09664905 43.17679306 34.78120767 42.78051654 29 41.5625 C28.33355469 41.42779297 27.66710937 41.29308594 26.98046875 41.15429688 C22.14481781 40.14481781 22.14481781 40.14481781 21 39 C19.96875 38.896875 18.9375 38.79375 17.875 38.6875 C13.31352432 37.87820593 10.90898812 36.43389826 7 34 C6.33742188 33.71898437 5.67484375 33.43796875 4.9921875 33.1484375 C2.44436717 31.67969402 1.38855501 30.02989717 -0.1875 27.5625 C-0.69667969 26.78003906 -1.20585938 25.99757812 -1.73046875 25.19140625 C-4.97984889 19.58247623 -4.58163224 13.29220331 -4 7 C-2.9605242 4.19931629 -1.80003649 2.41879903 0 0 Z " fill="#FD0D37" transform="translate(64,175)"/>
<path d="M0 0 C3.4375 1.8125 3.4375 1.8125 6 4 C6.9075 4.433125 7.815 4.86625 8.75 5.3125 C12.03963704 7.77972778 12.280624 10.01073307 13 14 C13.59886132 20.28804388 12.7876742 24.83197806 9 30 C3.97560597 34.70964081 -0.90840482 36.44726261 -7.84375 36.34375 C-13.32808154 35.46943628 -17.12012175 32.12804904 -20.4375 27.875 C-23.306447 22.59613752 -23.65517536 17.90555323 -23 12 C-21.39460127 7.59139209 -18.5826355 4.00479106 -15 1 C-10.09447876 -0.63517375 -5.1191487 -0.50240982 0 0 Z " fill="#FCFBF4" transform="translate(156,154)"/>
<path d="M0 0 C13.75742241 1.88774108 27.79185095 4.79185095 38 15 C38.28551032 18.2119911 38.26287757 20.4123913 36.9375 23.375 C33.9900808 25.847029 31.75834115 25.31157232 28 25 C24.859375 23.5390625 24.859375 23.5390625 21.75 21.625 C14.41571985 17.48643009 8.2288418 16.16357522 -0.1015625 15.8125 C-0.81787842 15.77946777 -1.53419434 15.74643555 -2.2722168 15.71240234 C-3.68705306 15.65529203 -5.10288244 15.61828764 -6.51879883 15.60400391 C-9.86883255 15.49397687 -11.72459792 15.20533979 -14.44140625 13.1796875 C-16.7262284 9.98437232 -16.54686132 7.82802923 -16 4 C-11.58580561 -1.67973178 -6.64272046 -0.60654103 0 0 Z " fill="#A15ACB" transform="translate(248,303)"/>
<path d="M0 0 C5.61 0 11.22 0 17 0 C17.375 8 17.375 8 17.47802734 10.46875 C17.93552484 19.08046764 19.52987692 28.38987306 25.74609375 34.80078125 C28.06523971 36.82099364 30.24371071 38.62185535 33 40 C33 40.99 33 41.98 33 43 C30.72923158 43.02699725 28.45837179 43.04639453 26.1875 43.0625 C24.92292969 43.07410156 23.65835938 43.08570313 22.35546875 43.09765625 C19 43 19 43 16 42 C16 41.34 16 40.68 16 40 C14.68 39.34 13.36 38.68 12 38 C12 37.34 12 36.68 12 36 C11.34 36 10.68 36 10 36 C10 35.34 10 34.68 10 34 C9.01 34 8.02 34 7 34 C6.505 32.515 6.505 32.515 6 31 C4.68352881 30.30062468 3.34977849 29.63270867 2 29 C-1.89569173 21.20861653 -0.07916946 8.55030154 0 0 Z " fill="#FC0D39" transform="translate(122,449)"/>
<path d="M0 0 C0 0.99 0 1.98 0 3 C2.56893838 4.28446919 4.76576337 4.32977144 7.625 4.5625 C9.12933594 4.68818359 9.12933594 4.68818359 10.6640625 4.81640625 C11.43492187 4.87699219 12.20578125 4.93757812 13 5 C13.89866192 8.02080334 14.1583689 9.57639537 13.0390625 12.5703125 C12.57242188 13.41335938 12.10578125 14.25640625 11.625 15.125 C10.17946161 17.78188341 8.95908092 20.12275724 8 23 C7.34 23.33 6.68 23.66 6 24 C5.44859215 25.29995115 4.93252233 26.61504905 4.4375 27.9375 C3.17100599 30.64384842 2.625013 31.75266865 -0.19140625 32.8671875 C-2.625 33.3125 -2.625 33.3125 -4.9765625 33.55078125 C-7.39502061 33.84280691 -7.39502061 33.84280691 -9 37 C-12.3 36.67 -15.6 36.34 -19 36 C-18.21156412 32.84625647 -17.40303705 29.70253737 -16.5625 26.5625 C-16.31628906 25.63566406 -16.07007812 24.70882813 -15.81640625 23.75390625 C-15.02076378 21.07004051 -14.19093378 18.53466661 -13 16 C-10.875 15.1875 -10.875 15.1875 -9 15 C-8.67 13.35 -8.34 11.7 -8 10 C-7.34 10 -6.68 10 -6 10 C-5.67 8.02 -5.34 6.04 -5 4 C-6.32 3.34 -7.64 2.68 -9 2 C-2.25 0 -2.25 0 0 0 Z " fill="#2488FD" transform="translate(127,246)"/>
<path d="M0 0 C5.28 0 10.56 0 16 0 C15.99097656 1.36511719 15.98195313 2.73023438 15.97265625 4.13671875 C16.08558544 15.58125576 16.60860113 24.70255142 24 34 C26.39837037 36.12182153 26.39837037 36.12182153 29 38 C31.475 39.98 31.475 39.98 34 42 C28.06 42 22.12 42 16 42 C15.34 40.02 14.68 38.04 14 36 C13.7525 35.29875 13.505 34.5975 13.25 33.875 C12.91777925 31.38334438 13.72004311 30.10816429 15 28 C14.01 28 13.02 28 12 28 C11.67 28.99 11.34 29.98 11 31 C10.34 31 9.68 31 9 31 C9 30.01 9 29.02 9 28 C8.34 28 7.68 28 7 28 C6.67 26.68 6.34 25.36 6 24 C5.34 24.66 4.68 25.32 4 26 C3.01 26 2.02 26 1 26 C0.07446257 22.86149936 -0.11664647 20.06319222 -0.09765625 16.796875 C-0.09443359 15.8171875 -0.09121094 14.8375 -0.08789062 13.828125 C-0.07951172 12.81234375 -0.07113281 11.7965625 -0.0625 10.75 C-0.05798828 9.71875 -0.05347656 8.6875 -0.04882812 7.625 C-0.03706103 5.08330846 -0.0191261 2.54164682 0 0 Z " fill="#FD0B37" transform="translate(257,449)"/>
<path d="M0 0 C4.62 0 9.24 0 14 0 C15.36798175 6.83990874 13.12762265 10.92686945 10 17 C8.47989895 19.11508094 6.86823126 21.1061971 5.21484375 23.1171875 C3.20157942 26.23742353 3.31457143 29.35097136 3 33 C2.01 33.66 1.02 34.32 0 35 C0.33 33.68 0.66 32.36 1 31 C-3.95 31 -8.9 31 -14 31 C-12.87464121 24.24784727 -12.87464121 24.24784727 -11.328125 21.23046875 C-10.99554688 20.57304687 -10.66296875 19.915625 -10.3203125 19.23828125 C-9.96710938 18.56152344 -9.61390625 17.88476562 -9.25 17.1875 C-8.89164063 16.48625 -8.53328125 15.785 -8.1640625 15.0625 C-5.55201894 9.97935049 -2.83555637 4.96222364 0 0 Z " fill="#FDD945" transform="translate(255,383)"/>
<path d="M0 0 C1.41449133 0.00138269 1.41449133 0.00138269 2.85755825 0.00279331 C3.93594463 0.00141865 5.01433102 0.00004398 6.12539577 -0.00137234 C7.31869503 0.00222294 8.51199429 0.00581821 9.74145412 0.00952244 C10.99005718 0.00937641 12.23866024 0.00923038 13.52509975 0.00907993 C16.95883867 0.00965892 20.39251812 0.01468828 23.8262465 0.02165389 C27.41105332 0.02788785 30.99586086 0.02849126 34.58067226 0.0296793 C41.37342918 0.03279249 48.16617009 0.04100571 54.95891994 0.05102879 C62.69035367 0.0621903 70.42178815 0.06770047 78.15322793 0.07272422 C94.06147082 0.08318834 109.96969771 0.10078754 125.87792873 0.12304783 C126.86792873 3.09304783 127.85792873 6.06304783 128.87792873 9.12304783 C129.53792873 9.12304783 130.19792873 9.12304783 130.87792873 9.12304783 C131.24049732 10.57931503 131.59272667 12.03815968 131.94042873 13.49804783 C132.1376553 14.3101572 132.33488186 15.12226658 132.53808498 15.95898533 C132.87792873 18.12304783 132.87792873 18.12304783 131.87792873 20.12304783 C129.59277248 20.75586033 129.59277248 20.75586033 126.81542873 21.24804783 C125.89632717 21.41562595 124.97722561 21.58320408 124.03027248 21.75586033 C122.96486233 21.93761814 122.96486233 21.93761814 121.87792873 22.12304783 C122.35458486 24.74898976 122.74793981 26.8775132 124.00292873 29.24804783 C124.87792873 31.12304783 124.87792873 31.12304783 123.87792873 34.12304783 C122.87332343 32.00022113 121.87437271 29.87471762 120.87792873 27.74804783 C120.32105373 26.56468845 119.76417873 25.38132908 119.19042873 24.16211033 C117.87792873 21.12304783 117.87792873 21.12304783 117.87792873 19.12304783 C103.32660165 19.16019693 88.77552527 19.22029543 74.22440529 19.30695057 C67.46820261 19.34677761 60.71211703 19.37915132 53.95580959 19.39404392 C47.43936725 19.40842865 40.92322896 19.44349775 34.40694523 19.49135685 C31.91701626 19.50622957 29.42703551 19.51409219 26.93706226 19.51493168 C23.45756322 19.51728533 19.97907992 19.54423679 16.49975491 19.57714939 C15.46325802 19.57211903 14.42676113 19.56708866 13.35885525 19.56190586 C11.93909138 19.58277508 11.93909138 19.58277508 10.49064541 19.6040659 C9.66748427 19.60775307 8.84432314 19.61144024 7.99621773 19.61523914 C5.13462421 20.30123716 4.38304471 21.6790446 2.87792873 24.12304783 C2.87792873 23.46304783 2.87792873 22.80304783 2.87792873 22.12304783 C2.13857082 22.058353 1.39921291 21.99365818 0.63745022 21.92700291 C-32.63947874 18.91124077 -32.63947874 18.91124077 -45.12207127 10.12304783 C-44.46207127 9.79304783 -43.80207127 9.46304783 -43.12207127 9.12304783 C-41.42365958 10.12211352 -39.72662418 11.1236736 -38.04004002 12.14257908 C-35.18027074 13.60449779 -32.29213394 13.74045406 -29.12207127 14.12304783 C-27.82242436 14.58012704 -26.5312612 15.06168943 -25.24707127 15.56054783 C-18.18456866 18.07494666 -10.53630292 18.39950054 -3.12207127 19.12304783 C-3.13367283 17.83527439 -3.14527439 16.54750095 -3.15722752 15.22070408 C-3.16660396 13.5423201 -3.17570432 11.86393457 -3.18457127 10.18554783 C-3.19295017 9.33541111 -3.20132908 8.48527439 -3.20996189 7.60937595 C-3.21318455 6.80048923 -3.2164072 5.99160252 -3.21972752 5.15820408 C-3.22496433 4.40933933 -3.23020115 3.66047459 -3.23559666 2.88891697 C-3.06611756 0.25269702 -2.62571656 0.15225159 0 0 Z M-1.12207127 1.12304783 C-1.45207127 6.73304783 -1.78207127 12.34304783 -2.12207127 18.12304783 C14.07217612 18.30003471 30.26648198 18.46612545 46.46098423 18.6178236 C53.98056825 18.68853505 61.50007763 18.76307839 69.0195303 18.84668064 C75.57438504 18.91954861 82.12926576 18.98518815 88.68427837 19.04219186 C92.15428729 19.07261905 95.62417635 19.10663556 99.09405804 19.14931202 C102.97002194 19.19684738 106.84602625 19.22824272 110.72216702 19.25830173 C111.86943768 19.27484303 113.01670834 19.29138432 114.19874477 19.30842686 C119.4874314 19.33669006 123.9451544 19.30630562 128.87792873 17.12304783 C128.77480373 15.96804783 128.67167873 14.81304783 128.56542873 13.62304783 C128.47841702 12.64851658 128.47841702 12.64851658 128.38964748 11.65429783 C127.65639793 8.02723135 126.17724043 4.58787903 124.87792873 1.12304783 C83.29792873 1.12304783 41.71792873 1.12304783 -1.12207127 1.12304783 Z " fill="#F4DA6A" transform="translate(114.12207126617432,198.87695217132568)"/>
<path d="M0 0 C0.96808594 0.02835937 1.93617187 0.05671875 2.93359375 0.0859375 C3.90425781 0.09882813 4.87492187 0.11171875 5.875 0.125 C8.37109375 0.4609375 8.37109375 0.4609375 10.37109375 2.4609375 C10.01428135 6.23932595 8.6665472 9.09459438 6.87109375 12.3984375 C4.94713248 16.10774611 3.70450073 19.23778244 3.37109375 23.4609375 C2.38109375 23.4609375 1.39109375 23.4609375 0.37109375 23.4609375 C-0.28890625 25.7709375 -0.94890625 28.0809375 -1.62890625 30.4609375 C-6.24890625 30.4609375 -10.86890625 30.4609375 -15.62890625 30.4609375 C-14.61321254 20.05007699 -11.22249539 13.05623486 -5.62890625 4.4609375 C-5.16484375 3.67460937 -4.70078125 2.88828125 -4.22265625 2.078125 C-2.62890625 0.4609375 -2.62890625 0.4609375 0 0 Z " fill="#FDD945" transform="translate(123.62890625,382.5390625)"/>
<path d="M0 0 C36.96 0 73.92 0 112 0 C118 13 118 13 118 15 C118.66 15 119.32 15 120 15 C120.98753064 16.72440365 121.96468806 18.45475026 122.9375 20.1875 C123.48277344 21.15042969 124.02804688 22.11335938 124.58984375 23.10546875 C125.92953993 25.85537143 126.7596582 27.95737506 127 31 C126.34 31.99 125.68 32.98 125 34 C122.3984375 34.51171875 122.3984375 34.51171875 119.375 34.6875 C117.87066406 34.78611328 117.87066406 34.78611328 116.3359375 34.88671875 C115.56507813 34.92410156 114.79421875 34.96148437 114 35 C114.37253906 35.68707031 114.74507813 36.37414062 115.12890625 37.08203125 C115.60199219 37.98308594 116.07507813 38.88414062 116.5625 39.8125 C117.27599609 41.15248047 117.27599609 41.15248047 118.00390625 42.51953125 C119 45 119 45 118 48 C117.01 45.525 117.01 45.525 116 43 C115.34 43 114.68 43 114 43 C114 41.35 114 39.7 114 38 C113.01 38 112.02 38 111 38 C111 36.02 111 34.04 111 32 C115.29 32 119.58 32 124 32 C123.01 29.525 123.01 29.525 122 27 C121.45260517 25.60640308 120.91048688 24.21071575 120.375 22.8125 C119.98441406 21.80123047 119.98441406 21.80123047 119.5859375 20.76953125 C119 19 119 19 119 17 C118.34 17 117.68 17 117 17 C114.39021812 13.25553035 112.74068424 9.19346658 111 5 C110.505 4.01 110.505 4.01 110 3 C108.41957413 2.9845388 108.41957413 2.9845388 106.80722046 2.96876526 C96.77761701 2.87013258 86.74806337 2.76733157 76.7185421 2.66066074 C71.56482078 2.60597565 66.41109357 2.55265599 61.25732422 2.50268555 C56.26461508 2.45422267 51.27195923 2.40187472 46.27931595 2.34705925 C44.39399199 2.32699911 42.50865367 2.30823658 40.62330246 2.29092598 C27.06352046 2.1651926 13.54234736 1.69951085 0 1 C0 0.67 0 0.34 0 0 Z " fill="#7CACD1" transform="translate(120,218)"/>
<path d="M0 0 C49.17 0 98.34 0 149 0 C140 19 140 19 135 28 C134.67 29.32 134.34 30.64 134 32 C138.29 32 142.58 32 147 32 C146.67 33.32 146.34 34.64 146 36 C146 35.34 146 34.68 146 34 C145.22914063 34.01160156 144.45828125 34.02320313 143.6640625 34.03515625 C142.15972656 34.04869141 142.15972656 34.04869141 140.625 34.0625 C139.62726563 34.07410156 138.62953125 34.08570313 137.6015625 34.09765625 C135 34 135 34 133 33 C133 24.20733099 136.8723518 17.56523221 140.94091797 10.00708008 C142.33742408 7.36054325 143.66176336 4.67647327 145 2 C122.89 2 100.78 2 78 2 C80.31 6.95 82.62 11.9 85 17 C84.67 17.66 84.34 18.32 84 19 C82 17.6875 82 17.6875 80 16 C80 15.01 80 14.02 80 13 C79.34 13 78.68 13 78 13 C77.86722656 12.38511719 77.73445313 11.77023437 77.59765625 11.13671875 C77.33275391 9.92435547 77.33275391 9.92435547 77.0625 8.6875 C76.80146484 7.48673828 76.80146484 7.48673828 76.53515625 6.26171875 C76.00113841 3.854599 76.00113841 3.854599 75 1 C54.87 1 34.74 1 14 1 C13.34 2.32 12.68 3.64 12 5 C11.03109187 6.85954791 10.05120223 8.71340041 9.0625 10.5625 C8.55847656 11.51253906 8.05445312 12.46257812 7.53515625 13.44140625 C6.18764407 15.68725989 4.94529721 17.27536337 3 19 C4.47767051 12.35048271 7.62136052 6.8754328 11 1 C7.37 1 3.74 1 0 1 C0 0.67 0 0.34 0 0 Z " fill="#F9EBD6" transform="translate(107,382)"/>
<path d="M0 0 C1.81826835 2.72740252 3.49660133 5.46870233 5.125 8.3125 C5.66382813 9.23675781 6.20265625 10.16101563 6.7578125 11.11328125 C8 14 8 14 8 20 C-66.58 20 -141.16 20 -218 20 C-218.33 18.35 -218.66 16.7 -219 15 C-218.34 14.01 -217.68 13.02 -217 12 C-217 14.31 -217 16.62 -217 19 C-143.08 19 -69.16 19 7 19 C6.01 16.03 5.02 13.06 4 10 C3.01 9.67 2.02 9.34 1 9 C0.67 6.03 0.34 3.06 0 0 Z " fill="#CDA3C7" transform="translate(324,362)"/>
<path d="M0 0 C1.875 0.125 1.875 0.125 4 1 C5.25 4.0625 5.25 4.0625 6 7 C6.66 7 7.32 7 8 7 C8 7.66 8 8.32 8 9 C8.5775 9.28875 9.155 9.5775 9.75 9.875 C11.83333333 10.91666667 13.91666667 11.95833333 16 13 C16 13.66 16 14.32 16 15 C13.15449988 14.33989524 10.47674001 13.48275034 7.75 12.4375 C7.04359375 12.16808594 6.3371875 11.89867187 5.609375 11.62109375 C5.07828125 11.41613281 4.5471875 11.21117187 4 11 C4 12.65 4 14.3 4 16 C3.34 16 2.68 16 2 16 C2 16.99 2 17.98 2 19 C2.99 19 3.98 19 5 19 C5.66 21.64 6.32 24.28 7 27 C7.66 27 8.32 27 9 27 C9 27.99 9 28.98 9 30 C8.01 30 7.02 30 6 30 C6.33 30.99 6.66 31.98 7 33 C4.19431993 32.64700771 3.19618655 32.23064554 1.33203125 30.0390625 C0.83058594 29.24242187 0.32914062 28.44578125 -0.1875 27.625 C-0.69667969 26.83351562 -1.20585938 26.04203125 -1.73046875 25.2265625 C-4.95228606 19.57599061 -4.58445173 13.32270512 -4 7 C-2.9605242 4.19931629 -1.80003649 2.41879903 0 0 Z " fill="#FC123A" transform="translate(64,175)"/>
<path d="M0 0 C19.8 0 39.6 0 60 0 C60 0.33 60 0.66 60 1 C40.53 1 21.06 1 1 1 C1.33 9.58 1.66 18.16 2 27 C5.0745356 26.2236068 5.0745356 26.2236068 7 24 C7.33 25.65 7.66 27.3 8 29 C8.66 29 9.32 29 10 29 C10 29.99 10 30.98 10 32 C10.433125 31.505 10.86625 31.01 11.3125 30.5 C13 29 13 29 16 29 C15.79375 30.0725 15.5875 31.145 15.375 32.25 C14.99841762 36.01582383 15.13637115 36.93049365 17 40 C17 40.99 17 41.98 17 43 C8.31597147 40.77850433 5.34121773 35.12162364 0 28 C0 18.76 0 9.52 0 0 Z " fill="#F03A4C" transform="translate(256,448)"/>
<path d="M0 0 C0 0.66 0 1.32 0 2 C0.99 2.33 1.98 2.66 3 3 C4.86585605 5.48780807 5.88921841 7.44609205 6.5 10.5 C5.75270303 14.23648485 3.9569129 15.70017886 1 18 C-1.8125 18.3125 -1.8125 18.3125 -4 18 C-4 17.34 -4 16.68 -4 16 C-4.99 16 -5.98 16 -7 16 C-9.00007696 11.87484127 -9.41508447 8.5659292 -9 4 C-6.9285531 -0.48813496 -4.68078576 -0.41606985 0 0 Z " fill="#A15BCB" transform="translate(296,331)"/>
<path d="M0 0 C0.66 0 1.32 0 2 0 C2 1.98 2 3.96 2 6 C1.34 6 0.68 6 0 6 C0 6.66 0 7.32 0 8 C-0.7115625 8.61875 -0.7115625 8.61875 -1.4375 9.25 C-3.58739668 11.65788428 -3.65045398 13.85408584 -4 17 C-3.34 16.67 -2.68 16.34 -2 16 C-1.67 15.01 -1.34 14.02 -1 13 C-0.34 13 0.32 13 1 13 C1.33 14.65 1.66 16.3 2 18 C1.071875 18.268125 0.14375 18.53625 -0.8125 18.8125 C-3.79513615 19.92367817 -5.11865457 20.52454549 -7 23 C-7.33 23.99 -7.66 24.98 -8 26 C-1.07 26.495 -1.07 26.495 6 27 C5.67 28.98 5.34 30.96 5 33 C4.34 33 3.68 33 3 33 C3 34.65 3 36.3 3 38 C0.525 38.495 0.525 38.495 -2 39 C-0.8741386 35.46157845 0.33094759 32.33810482 2 29 C-1.96 29 -5.92 29 -10 29 C-11.16029234 24.22956732 -10.87817031 21.75634063 -8.69140625 17.3828125 C-8.19189453 16.36445313 -7.69238281 15.34609375 -7.17773438 14.296875 C-6.64470703 13.25015625 -6.11167969 12.2034375 -5.5625 11.125 C-5.03333984 10.05507812 -4.50417969 8.98515625 -3.95898438 7.8828125 C-2.65326563 5.24784855 -1.33337599 2.62104711 0 0 Z " fill="#6BA9F8" transform="translate(116,223)"/>
<path d="M0 0 C0.625 1.8125 0.625 1.8125 1 4 C0.01 5.485 0.01 5.485 -1 7 C-1 8.32 -1 9.64 -1 11 C2.96 11.33 6.92 11.66 11 12 C11.03867188 13.97419922 11.03867188 13.97419922 11.078125 15.98828125 C11.11588356 30.0734399 11.11588356 30.0734399 16 43 C18.03680342 44.29347198 18.03680342 44.29347198 20 45 C20 45.99 20 46.98 20 48 C20.99 48 21.98 48 23 48 C23 48.66 23 49.32 23 50 C23.66 50 24.32 50 25 50 C27.125 51.875 27.125 51.875 29 54 C29 54.66 29 55.32 29 56 C33.38556481 56.84234934 37.5364113 57.13478857 42 57.125 C43.175625 57.12757813 44.35125 57.13015625 45.5625 57.1328125 C48.79725504 57.00783333 51.82468717 56.6098924 55 56 C48.69482645 60.20344903 41.39225449 59.71706172 34 59 C30.64244332 58.11109953 27.94738937 56.81035769 25 55 C23.96875 54.484375 22.9375 53.96875 21.875 53.4375 C16.09065557 48.5333819 11.79864851 41.36922012 10 34 C9.77527776 30.53625242 9.81066681 27.0940433 9.875 23.625 C9.88402344 22.69816406 9.89304687 21.77132813 9.90234375 20.81640625 C9.92577063 18.54399923 9.95857252 16.2721382 10 14 C9.15695313 14.02320313 8.31390625 14.04640625 7.4453125 14.0703125 C5.80175781 14.09738281 5.80175781 14.09738281 4.125 14.125 C3.03445312 14.14820313 1.94390625 14.17140625 0.8203125 14.1953125 C-2 14 -2 14 -4 12 C-3.72832465 7.20040219 -2.74562195 3.93937062 0 0 Z " fill="#FEDDE0" transform="translate(109,435)"/>
<path d="M0 0 C25.08 0 50.16 0 76 0 C76 0.66 76 1.32 76 2 C76.66 2 77.32 2 78 2 C79.19716659 4.45404224 80.3829346 6.91251679 81.5625 9.375 C81.90474609 10.07367188 82.24699219 10.77234375 82.59960938 11.4921875 C83.46030712 13.30052216 84.23652436 15.14851956 85 17 C84.67 17.66 84.34 18.32 84 19 C82 17.6875 82 17.6875 80 16 C80 15.01 80 14.02 80 13 C79.34 13 78.68 13 78 13 C77.86722656 12.38511719 77.73445313 11.77023437 77.59765625 11.13671875 C77.33275391 9.92435547 77.33275391 9.92435547 77.0625 8.6875 C76.80146484 7.48673828 76.80146484 7.48673828 76.53515625 6.26171875 C76.00113841 3.854599 76.00113841 3.854599 75 1 C54.87 1 34.74 1 14 1 C13.34 2.32 12.68 3.64 12 5 C11.03109187 6.85954791 10.05120223 8.71340041 9.0625 10.5625 C8.55847656 11.51253906 8.05445312 12.46257812 7.53515625 13.44140625 C6.18764407 15.68725989 4.94529721 17.27536337 3 19 C4.47767051 12.35048271 7.62136052 6.8754328 11 1 C7.37 1 3.74 1 0 1 C0 0.67 0 0.34 0 0 Z " fill="#F9D9A4" transform="translate(107,382)"/>
<path d="M0 0 C2.375 1.625 2.375 1.625 4 4 C4.45319325 7.17235276 4.52990283 9.06487736 2.9375 11.875 C-0.15097604 13.66830867 -2.51143969 13.42841969 -6 13 C-8.8520847 11.02547983 -9.81895125 9.90524375 -10.5 6.5 C-9.33827182 0.69135908 -5.5534724 -0.92557873 0 0 Z " fill="#454449" transform="translate(154,165)"/>
<path d="M0 0 C1.5 1.1875 1.5 1.1875 3 3 C3.25 5.625 3.25 5.625 3 8 C2 9 2 9 0.08095455 9.12304783 C-1.18973708 9.12166514 -1.18973708 9.12166514 -2.48609924 9.12025452 C-3.45510162 9.12162918 -4.424104 9.12300385 -5.42247009 9.12442017 C-7.03007957 9.11902725 -7.03007957 9.11902725 -8.67016602 9.11352539 C-10.35287598 9.11374443 -10.35287598 9.11374443 -12.06958008 9.1139679 C-15.79770811 9.1132682 -19.52578689 9.10547315 -23.25390625 9.09765625 C-25.83080518 9.09579227 -28.40770447 9.09436827 -30.98460388 9.09336853 C-37.08675115 9.08993342 -43.18887794 9.0820426 -49.29101747 9.07201904 C-56.2364925 9.06085689 -63.18196835 9.0553472 -70.12745011 9.05032361 C-84.41830966 9.03985996 -98.7091542 9.02226115 -113 9 C-113 8.67 -113 8.34 -113 8 C-56.57 7.505 -56.57 7.505 1 7 C0.505 3.535 0.505 3.535 0 0 Z " fill="#7A97F3" transform="translate(242,275)"/>
<path d="M0 0 C1.49818342 4.57553313 -0.23262568 7.74606007 -2 12 C-2.56807954 13.49789582 -3.13084193 14.99782223 -3.6875 16.5 C-4.120625 17.655 -4.55375 18.81 -5 20 C-1.7 20.33 1.6 20.66 5 21 C5.66 19.68 6.32 18.36 7 17 C9.95664519 15.5216774 12.74229737 15.93967217 16 16 C16 17.98 16 19.96 16 22 C8.41 22 0.82 22 -7 22 C-8.0471463 16.76426849 -7.95764218 16.03487855 -5.75 11.5625 C-5.28722656 10.60859375 -4.82445313 9.6546875 -4.34765625 8.671875 C-3.90292969 7.79015625 -3.45820312 6.9084375 -3 6 C-2.66871094 5.32453125 -2.33742188 4.6490625 -1.99609375 3.953125 C-1.3435094 2.62904081 -0.67431942 1.31314835 0 0 Z " fill="#3886F6" transform="translate(113,262)"/>
<path d="M0 0 C2.858827 3.36184641 4.21618816 6.79750241 5.6875 10.9375 C6.12449219 12.14277344 6.56148437 13.34804687 7.01171875 14.58984375 C7.89339528 17.6321505 8.21979066 19.86946823 8 23 C5.65085508 20.65085508 5.26859643 19.04320554 4.375 15.875 C3.98441406 14.50988281 3.98441406 14.50988281 3.5859375 13.1171875 C3.39257812 12.41851562 3.19921875 11.71984375 3 11 C0.69 10.67 -1.62 10.34 -4 10 C-4 10.66 -4 11.32 -4 12 C-5.16015625 12.05607422 -5.16015625 12.05607422 -6.34375 12.11328125 C-11.99406289 12.46992229 -16.79449166 13.02790726 -22.0078125 15.234375 C-28.47140556 17.71842253 -35.14441551 18.25391054 -42 18 C-42 18.66 -42 19.32 -42 20 C-45.3 20 -48.6 20 -52 20 C-52 19.67 -52 19.34 -52 19 C-49.16888282 18.32246768 -46.33570624 17.65781273 -43.5 17 C-42.70851562 16.80921875 -41.91703125 16.6184375 -41.1015625 16.421875 C-35.93737043 15.23665059 -31.29774939 14.80558718 -26 15 C-26 14.34 -26 13.68 -26 13 C-20.83114509 11.56420697 -15.94840445 10.74112926 -10.609375 10.28515625 C-6.34866849 9.81954012 -2.18335452 8.91677769 2 8 C1.505 7.13375 1.505 7.13375 1 6.25 C0 4 0 4 0 0 Z " fill="#F5D8AF" transform="translate(214,119)"/>
<path d="M0 0 C0.33 0 0.66 0 1 0 C1.33 3.63 1.66 7.26 2 11 C2.99 10.67 3.98 10.34 5 10 C5 10.66 5 11.32 5 12 C6.32 12 7.64 12 9 12 C9.66 14.64 10.32 17.28 11 20 C11.66 20 12.32 20 13 20 C13 20.99 13 21.98 13 23 C12.01 23 11.02 23 10 23 C10.33 23.99 10.66 24.98 11 26 C8.19431993 25.64700771 7.19618655 25.23064554 5.33203125 23.0390625 C4.83058594 22.24242187 4.32914062 21.44578125 3.8125 20.625 C3.30332031 19.83351562 2.79414062 19.04203125 2.26953125 18.2265625 C-0.05547794 14.14885408 -0.10822144 10.93036539 -0.0625 6.3125 C-0.05347656 5.13300781 -0.04445312 3.95351562 -0.03515625 2.73828125 C-0.02355469 1.83464844 -0.01195312 0.93101562 0 0 Z " fill="#F41B40" transform="translate(60,182)"/>
<path d="M0 0 C20.13 0 40.26 0 61 0 C61 0.33 61 0.66 61 1 C41.53 1 22.06 1 2 1 C2.33 9.25 2.66 17.5 3 26 C-2.42044639 17.86933042 0 10.62873268 0 0 Z " fill="#E53746" transform="translate(120,448)"/>
<path d="M0 0 C1.76015574 3.52031148 -0.10190791 7.30197375 -1 11 C2.96 11 6.92 11 11 11 C11 17 11 17 9 20 C8.34 20 7.68 20 7 20 C6.9175 20.66 6.835 21.32 6.75 22 C5.75240209 25.99039163 3.92833317 29.38549643 2 33 C1 30 1 30 1.62084961 28.19067383 C1.96124268 27.53607178 2.30163574 26.88146973 2.65234375 26.20703125 C3.01650391 25.49482422 3.38066406 24.78261719 3.75585938 24.04882812 C4.14580078 23.31083984 4.53574219 22.57285156 4.9375 21.8125 C5.32357422 21.06291016 5.70964844 20.31332031 6.10742188 19.54101562 C7.06271757 17.68939311 8.03021577 15.84407548 9 14 C7.84371094 14.03480469 7.84371094 14.03480469 6.6640625 14.0703125 C5.66117188 14.08835937 4.65828125 14.10640625 3.625 14.125 C2.62726563 14.14820313 1.62953125 14.17140625 0.6015625 14.1953125 C-2 14 -2 14 -4 12 C-3.72832465 7.20040219 -2.74562195 3.93937062 0 0 Z " fill="#FAEAA4" transform="translate(109,402)"/>
<path d="M0 0 C2 2 2 2 2.25 4.5 C2 7 2 7 0 9 C-2.6015625 9.1953125 -2.6015625 9.1953125 -5.625 9.125 C-7.12933594 9.09792969 -7.12933594 9.09792969 -8.6640625 9.0703125 C-9.43492187 9.04710937 -10.20578125 9.02390625 -11 9 C-10.45730469 10.08539063 -9.91460937 11.17078125 -9.35546875 12.2890625 C-5.04296875 20.9140625 -5.04296875 20.9140625 -3.99755859 23.01269531 C-3.09263065 24.81546414 -2.16662702 26.60761529 -1.23828125 28.3984375 C0 31 0 31 0 33 C-0.66 33 -1.32 33 -2 33 C-2.67154933 31.71086513 -3.33708859 30.41859796 -4 29.125 C-4.37125 28.40570313 -4.7425 27.68640625 -5.125 26.9453125 C-6 25 -6 25 -6 23 C-6.66 23 -7.32 23 -8 23 C-11.77835498 17.48989899 -13 13.75096184 -13 7 C-8.71 7 -4.42 7 0 7 C0 4.69 0 2.38 0 0 Z " fill="#FAEEBB" transform="translate(330,407)"/>
<path d="M0 0 C3.40312738 1.05875074 6.01353231 2.00902154 9 4 C10.03125 4.144375 11.0625 4.28875 12.125 4.4375 C15.89503235 4.98476276 19.04694596 5.95781566 22.59375 7.28125 C28.86710718 9.15510994 35.44009388 9.26109941 41.9375 9.5625 C42.81212891 9.60568359 43.68675781 9.64886719 44.58789062 9.69335938 C46.72511995 9.79846901 48.86254238 9.89963985 51 10 C50.34 11.65 49.68 13.3 49 15 C48.505 14.01 48.505 14.01 48 13 C45.52942489 12.5166923 45.52942489 12.5166923 42.5234375 12.32421875 C41.38414795 12.22117432 40.2448584 12.11812988 39.07104492 12.01196289 C37.24150269 11.85135376 37.24150269 11.85135376 35.375 11.6875 C22.44501444 10.40543249 10.75642249 8.83016106 0 1 C0 0.67 0 0.34 0 0 Z " fill="#FAACB2" transform="translate(69,208)"/>
<path d="M0 0 C2.80772911 2.40027502 2.98205578 2.78466941 3.3125 6.75 C2.88330593 16.10643083 2.88330593 16.10643083 -0.43359375 19.44140625 C-1.93801377 20.64999308 -3.46800816 21.82655944 -5 23 C-5.33 23.99 -5.66 24.98 -6 26 C-13.17878546 27.55216983 -22.3090812 28.52153621 -29 25 C-29.6484375 22.921875 -29.6484375 22.921875 -30 21 C-29.27296875 21.433125 -29.27296875 21.433125 -28.53125 21.875 C-23.34981749 24.74471647 -19.91714201 25.65746022 -14 25 C-8.35028646 23.02260026 -4.34302511 21.25436359 -1.25 16.0625 C0.79189085 10.94121701 0.23989826 5.41103858 0 0 Z " fill="#F8E595" transform="translate(168,164)"/>
<path d="M0 0 C0.90878906 0.19916016 0.90878906 0.19916016 1.8359375 0.40234375 C7.24569691 1.54255458 12.55301108 2.33244546 18.06640625 2.75390625 C20 3 20 3 21 4 C21.08669432 5.4887186 21.10703494 6.981445 21.09765625 8.47265625 C21.09443359 9.37177734 21.09121094 10.27089844 21.08789062 11.19726562 C21.07951172 12.14279297 21.07113281 13.08832031 21.0625 14.0625 C21.05798828 15.01189453 21.05347656 15.96128906 21.04882812 16.93945312 C21.0370011 19.29303065 21.02052025 21.64648477 21 24 C15.68896861 24.10742921 10.68343155 23.96476902 5.4375 23 C4.40496094 22.814375 3.37242188 22.62875 2.30859375 22.4375 C1.16583984 22.2209375 1.16583984 22.2209375 0 22 C0 21.67 0 21.34 0 21 C6.96773559 19.87617168 12.13237959 20.35564018 19 22 C19.33 16.39 19.66 10.78 20 5 C17.834375 5.12375 17.834375 5.12375 15.625 5.25 C9.77200544 5.28344568 5.22482329 3.49012855 0 1 C0 0.67 0 0.34 0 0 Z " fill="#F12C40" transform="translate(89,194)"/>
<path d="M0 0 C0.66 0.721875 1.32 1.44375 2 2.1875 C4.81419598 5.03413628 7.98356367 6.97376362 11.42578125 8.984375 C11.94527344 9.31953125 12.46476562 9.6546875 13 10 C13 10.33 13 10.66 13 11 C7.06 11 1.12 11 -5 11 C-5 10.34 -5 9.68 -5 9 C-4.195625 8.87625 -3.39125 8.7525 -2.5625 8.625 C-1.716875 8.41875 -0.87125 8.2125 0 8 C0.33 7.34 0.66 6.68 1 6 C-0.2065625 5.566875 -0.2065625 5.566875 -1.4375 5.125 C-4 4 -4 4 -5 2 C-3.35 2 -1.7 2 0 2 C0 1.34 0 0.68 0 0 Z " fill="#F9143C" transform="translate(278,480)"/>
<path d="M0 0 C1.32 0.33 2.64 0.66 4 1 C4 1.99 4 2.98 4 4 C4.99 4 5.98 4 7 4 C7 4.66 7 5.32 7 6 C7.66 6 8.32 6 9 6 C11.125 7.875 11.125 7.875 13 10 C13 10.66 13 11.32 13 12 C17.38556481 12.84234934 21.5364113 13.13478857 26 13.125 C27.175625 13.12757813 28.35125 13.13015625 29.5625 13.1328125 C32.79725504 13.00783333 35.82468717 12.6098924 39 12 C32.69482645 16.20344903 25.39225449 15.71706172 18 15 C14.64709884 14.11233206 11.93271993 12.82981671 9 11 C7.329375 10.01 7.329375 10.01 5.625 9 C3.17472144 7.1331211 1.54095413 5.65386545 0 3 C0 2.01 0 1.02 0 0 Z " fill="#F591A3" transform="translate(125,479)"/>
<path d="M0 0 C3.37688293 3.37688293 4.09233249 5.37914723 5 10 C4.01 11.485 4.01 11.485 3 13 C0.3984375 13.51171875 0.3984375 13.51171875 -2.625 13.6875 C-4.12933594 13.78611328 -4.12933594 13.78611328 -5.6640625 13.88671875 C-6.43492187 13.92410156 -7.20578125 13.96148437 -8 14 C-7.62746094 14.68707031 -7.25492188 15.37414062 -6.87109375 16.08203125 C-6.16146484 17.43361328 -6.16146484 17.43361328 -5.4375 18.8125 C-4.96183594 19.70582031 -4.48617187 20.59914063 -3.99609375 21.51953125 C-3 24 -3 24 -4 27 C-4.66 25.35 -5.32 23.7 -6 22 C-6.66 22 -7.32 22 -8 22 C-8 20.35 -8 18.7 -8 17 C-8.99 17 -9.98 17 -11 17 C-11 15.02 -11 13.04 -11 11 C-6.38 11 -1.76 11 3 11 C2.01 7.37 1.02 3.74 0 0 Z " fill="#B1D2F7" transform="translate(242,239)"/>
<path d="M0 0 C3.72007056 4.11864955 8 10.20736961 8 16 C9.23234375 16.03738281 10.4646875 16.07476562 11.734375 16.11328125 C21.20685646 16.46666773 29.91231421 17.11588415 39 20 C35.93028765 20.97298918 34.08901571 20.9540373 31 20.125 C22.50535042 18.22589405 13.6689655 18.31041711 5 18 C5.0515625 17.09507812 5.103125 16.19015625 5.15625 15.2578125 C4.99060653 11.8041461 4.4895782 10.60514342 2.5 7.875 C0.22009148 4.72112655 0 4.1747883 0 0 Z " fill="#F3E5F9" transform="translate(239,266)"/>
<path d="M0 0 C6.09064933 9.135974 9.40589296 22.22770093 11 33 C9 31 9 31 7.5625 27.5 C6.28656506 23.80562758 6.28656506 23.80562758 3 22 C2.3046875 19.27734375 2.3046875 19.27734375 1.875 15.9375 C1.7203125 14.77734375 1.565625 13.6171875 1.40625 12.421875 C1.2721875 11.29265625 1.138125 10.1634375 1 9 C0.8865625 8.05640625 0.773125 7.1128125 0.65625 6.140625 C0.4217761 4.09549155 0.20826794 2.04796809 0 0 Z " fill="#FCEAA5" transform="translate(233,175)"/>
<path d="M0 0 C4.75234993 3.16823329 5.74765488 8.17016599 7.75 13.375 C8.17410156 14.42945313 8.59820312 15.48390625 9.03515625 16.5703125 C9.62876953 18.09398437 9.62876953 18.09398437 10.234375 19.6484375 C10.59756836 20.57833496 10.96076172 21.50823242 11.33496094 22.46630859 C12.03541459 25.13492386 11.9368305 26.44357694 11 29 C10.609375 26.98177083 10.21875 24.96354167 9.828125 22.9453125 C9.55484375 22.30335937 9.2815625 21.66140625 9 21 C8.35933594 20.74863281 7.71867188 20.49726562 7.05859375 20.23828125 C5 19 5 19 3.76953125 15.41015625 C3.43372669 13.96473661 3.11530376 12.51519147 2.8125 11.0625 C2.4863081 9.615743 2.15950813 8.16912293 1.83203125 6.72265625 C1.55746094 5.49417969 1.28289062 4.26570313 1 3 C0.67 2.01 0.34 1.02 0 0 Z " fill="#D7B8E6" transform="translate(185,43)"/>
<path d="M0 0 C19.14 0 38.28 0 58 0 C58 0.33 58 0.66 58 1 C54.37 1 50.74 1 47 1 C47.495 2.98 47.495 2.98 48 5 C47.34 5 46.68 5 46 5 C45.34 4.01 44.68 3.02 44 2 C42.03009759 1.52573374 42.03009759 1.52573374 39.73388672 1.56762695 C38.85312469 1.54783279 37.97236267 1.52803864 37.06491089 1.50764465 C36.11278717 1.50125473 35.16066345 1.49486481 34.1796875 1.48828125 C32.71899338 1.46135445 32.71899338 1.46135445 31.22879028 1.43388367 C28.11090458 1.37959368 24.99317355 1.34582509 21.875 1.3125 C19.7643013 1.27934343 17.65362306 1.24485534 15.54296875 1.20898438 C10.36211788 1.12385693 5.18124743 1.05558664 0 1 C0 0.67 0 0.34 0 0 Z " fill="#FADEB4" transform="translate(272,382)"/>
<path d="M0 0 C2.14208427 3.2131264 2.59687808 5.21065397 3 9 C2.67 9.66 2.34 10.32 2 11 C-0.28515625 11.6328125 -0.28515625 11.6328125 -3.0625 12.125 C-3.98160156 12.29257813 -4.90070313 12.46015625 -5.84765625 12.6328125 C-6.91306641 12.81457031 -6.91306641 12.81457031 -8 13 C-7.52334387 15.62594193 -7.12998892 17.75446537 -5.875 20.125 C-5 22 -5 22 -6 25 C-7.00460531 22.87717331 -8.00355602 20.75166979 -9 18.625 C-9.556875 17.44164062 -10.11375 16.25828125 -10.6875 15.0390625 C-12 12 -12 12 -12 10 C-6.06 9.505 -6.06 9.505 0 9 C0 6.03 0 3.06 0 0 Z " fill="#ECEED9" transform="translate(244,208)"/>
<path d="M0 0 C3.47774537 3.00350737 4.82620922 6.13174913 5.25 10.6875 C5 13 5 13 3 15 C0.3984375 15.1953125 0.3984375 15.1953125 -2.625 15.125 C-4.12933594 15.09792969 -4.12933594 15.09792969 -5.6640625 15.0703125 C-6.43492187 15.04710937 -7.20578125 15.02390625 -8 15 C-7.44119141 16.04800781 -7.44119141 16.04800781 -6.87109375 17.1171875 C-6.39800781 18.02726562 -5.92492187 18.93734375 -5.4375 19.875 C-4.96183594 20.77992188 -4.48617187 21.68484375 -3.99609375 22.6171875 C-3.66738281 23.40351563 -3.33867187 24.18984375 -3 25 C-3.33 25.66 -3.66 26.32 -4 27 C-4.45375 26.195625 -4.9075 25.39125 -5.375 24.5625 C-6.74725665 21.91143428 -6.74725665 21.91143428 -9 21 C-9 18.69 -9 16.38 -9 14 C-5.37 14 -1.74 14 2 14 C2.29562367 8.67829506 2.29562367 8.67829506 0 4 C0 2.68 0 1.36 0 0 Z " fill="#FBF2CD" transform="translate(192,401)"/>
<path d="M0 0 C2.32421875 0.16015625 2.32421875 0.16015625 5 1 C6.58203125 3.43359375 6.58203125 3.43359375 7.8125 6.4375 C8.44091797 7.92056641 8.44091797 7.92056641 9.08203125 9.43359375 C10 12 10 12 10 14 C10.66 14 11.32 14 12 14 C12.84442881 15.89091736 13.67511587 17.78797515 14.5 19.6875 C14.9640625 20.74324219 15.428125 21.79898438 15.90625 22.88671875 C16.94950801 25.85627816 17.23065301 27.89195063 17 31 C16.731875 30.443125 16.46375 29.88625 16.1875 29.3125 C15.0216876 26.94046509 15.0216876 26.94046509 13.4375 24.625 C11.8441333 21.71537386 11.38083701 19.27519826 11 16 C10.34 16 9.68 16 9 16 C7.08913306 13.25832135 5.79838967 10.52117547 4.5 7.4375 C3.23278235 4.53345955 2.01923218 2.40384783 0 0 Z " fill="#7DAEEB" transform="translate(228,219)"/>
<path d="M0 0 C3.33833377 5.00750066 4.79063148 10.81818982 6.6875 16.5 C7.12023822 17.7617889 7.55317874 19.02350844 7.98632812 20.28515625 C8.38658203 21.48011719 8.78683594 22.67507812 9.19921875 23.90625 C9.75355591 25.55077148 9.75355591 25.55077148 10.3190918 27.22851562 C11 30 11 30 10 33 C5.55342875 26.51468462 3.95673085 20.0916711 2.67578125 12.453125 C2.1247325 9.06819987 2.1247325 9.06819987 0.91796875 6.296875 C0 4 0 4 0 0 Z " fill="#FBEFBE" transform="translate(222,142)"/>
<path d="M0 0 C1.54715835 4.71721009 0.18018555 8.27925781 -1 13 C2.96 13 6.92 13 11 13 C11 13.66 11 14.32 11 15 C8.87506859 15.02693575 6.75004088 15.04636628 4.625 15.0625 C3.44164062 15.07410156 2.25828125 15.08570313 1.0390625 15.09765625 C-2 15 -2 15 -4 14 C-4.49940808 7.88225104 -3.24900602 4.97504047 0 0 Z " fill="#F9EDB1" transform="translate(244,434)"/>
<path d="M0 0 C7.59 0 15.18 0 23 0 C21.68 2.64 20.36 5.28 19 8 C18.34 8 17.68 8 17 8 C17 6.35 17 4.7 17 3 C9.575 2.01 9.575 2.01 2 1 C1.67 1.99 1.34 2.98 1 4 C0.34 4 -0.32 4 -1 4 C-0.67 2.68 -0.34 1.36 0 0 Z " fill="#2B88F8" transform="translate(119,219)"/>
<path d="M0 0 C0.33 0 0.66 0 1 0 C1.04898438 1.134375 1.09796875 2.26875 1.1484375 3.4375 C1.2235414 4.95835398 1.29908584 6.47918625 1.375 8 C1.4059375 8.74378906 1.436875 9.48757813 1.46875 10.25390625 C1.84958605 17.55326385 3.58236961 24.09248461 6 31 C4.68 31 3.36 31 2 31 C0.9375 29.125 0.9375 29.125 0 27 C0.33 26.34 0.66 25.68 1 25 C0.34 25 -0.32 25 -1 25 C-0.67 16.75 -0.34 8.5 0 0 Z " fill="#F81F49" transform="translate(138,449)"/>
<path d="M0 0 C-0.969375 0.24234375 -1.93875 0.4846875 -2.9375 0.734375 C-3.5778418 0.89462158 -4.21818359 1.05486816 -4.87792969 1.2199707 C-6.30535917 1.57649963 -7.73309995 1.93178427 -9.16113281 2.28588867 C-12.94369872 3.22573121 -16.71881261 4.18543477 -20.484375 5.19140625 C-21.55751953 5.47322754 -21.55751953 5.47322754 -22.65234375 5.76074219 C-24.02676623 6.12226393 -25.39927859 6.4911458 -26.76953125 6.86816406 C-30.27028412 7.7792943 -32.55553776 8.03756213 -36 7 C-6.88549754 -2.18359529 -6.88549754 -2.18359529 0 0 Z " fill="#FCE4C7" transform="translate(134,145)"/>
<path d="M0 0 C4.62 0 9.24 0 14 0 C13.67 1.98 13.34 3.96 13 6 C12.34 6 11.68 6 11 6 C11 7.65 11 9.3 11 11 C9.35 11.33 7.7 11.66 6 12 C7.25805377 7.49197399 8.90407165 4.5087188 12 1 C8.04 1 4.08 1 0 1 C0 0.67 0 0.34 0 0 Z " fill="#5A97EC" transform="translate(108,250)"/>
<path d="M0 0 C0.33 0 0.66 0 1 0 C1.89604368 6.04829486 2.11269443 11.8894576 2 18 C2.59167969 17.855625 3.18335938 17.71125 3.79296875 17.5625 C7.92529941 16.59177306 11.7229762 15.72406298 16 16 C11.14613557 19.23590962 5.73438253 19.20513509 0 20 C0 13.4 0 6.8 0 0 Z " fill="#A46DB2" transform="translate(155,120)"/>
<path d="M0 0 C0.66 0 1.32 0 2 0 C2.50912008 6.16600986 0.97685209 9.93713948 -1.9375 15.3125 C-2.31068359 16.02728516 -2.68386719 16.74207031 -3.06835938 17.47851562 C-4.03423266 19.3249869 -5.01602633 21.16311046 -6 23 C-6.33 23.66 -6.66 24.32 -7 25 C-7.66 25 -8.32 25 -9 25 C-7.27633485 19.21962797 -4.48650297 14.40543367 -1.4609375 9.21875 C0.07828772 5.82751583 0.29880005 3.67413396 0 0 Z " fill="#FEE164" transform="translate(270,415)"/>
<path d="M0 0 C14.17920237 -1.06091419 14.17920237 -1.06091419 18.43359375 1.41796875 C20.08446518 3.27470424 21.20052657 4.64466511 22 7 C21.62109375 9.234375 21.62109375 9.234375 21 11 C20.67 10.01 20.34 9.02 20 8 C17.71126384 6.42621684 17.71126384 6.42621684 15 5 C14.278125 4.46375 13.55625 3.9275 12.8125 3.375 C8.68980433 1.35945989 4.53691738 1.2554769 0 1 C0 0.67 0 0.34 0 0 Z " fill="#F9E99D" transform="translate(146,153)"/>
<path d="M0 0 C2 2 2 2 2.25 4.5 C2 7 2 7 0 9 C-2.6015625 9.1953125 -2.6015625 9.1953125 -5.625 9.125 C-7.12933594 9.09792969 -7.12933594 9.09792969 -8.6640625 9.0703125 C-9.43492187 9.04710937 -10.20578125 9.02390625 -11 9 C-10.67 10.32 -10.34 11.64 -10 13 C-10.99 12.34 -11.98 11.68 -13 11 C-13 9.68 -13 8.36 -13 7 C-8.71 7 -4.42 7 0 7 C0 4.69 0 2.38 0 0 Z " fill="#FDF0C8" transform="translate(330,407)"/>
<path d="M0 0 C1.32527172 3.6297251 0.66675274 5.62288221 -0.8125 9.125 C-1.16957031 9.99382812 -1.52664062 10.86265625 -1.89453125 11.7578125 C-3 14 -3 14 -5 16 C-5.16681109 19.08347826 -5.16681109 19.08347826 -5 22 C-5.99 21.67 -6.98 21.34 -8 21 C-7.51536617 15.18439399 -5.77547621 11.08837305 -3 6 C-2.4225 4.845 -1.845 3.69 -1.25 2.5 C-0.8375 1.675 -0.425 0.85 0 0 Z " fill="#9AC3F5" transform="translate(113,262)"/>
<path d="M0 0 C3.87621574 4.23961096 3.87621574 4.23961096 4.4375 7.6875 C4.293125 8.450625 4.14875 9.21375 4 10 C0.71508627 12.18994248 -0.83095639 12.35277339 -4.6875 12.625 C-5.68136719 12.69976562 -6.67523438 12.77453125 -7.69921875 12.8515625 C-8.45847656 12.90054687 -9.21773438 12.94953125 -10 13 C-10.33 12.01 -10.66 11.02 -11 10 C-6.71 10 -2.42 10 2 10 C2 8.02 2 6.04 2 4 C1.34 4 0.68 4 0 4 C0 2.68 0 1.36 0 0 Z " fill="#EEDBF6" transform="translate(328,339)"/>
<path d="M0 0 C1.10844919 3.32534757 0.84454356 5.62182575 0 9 C-0.99 9.33 -1.98 9.66 -3 10 C-3 11.32 -3 12.64 -3 14 C-3.66 14 -4.32 14 -5 14 C-5 14.66 -5 15.32 -5 16 C-5.66 16 -6.32 16 -7 16 C-5.26017005 10.18738629 -3.1889511 5.16830006 0 0 Z " fill="#FBE69A" transform="translate(252,418)"/>
<path d="M0 0 C1.32 0.33 2.64 0.66 4 1 C4 1.66 4 2.32 4 3 C4.66 3 5.32 3 6 3 C6 3.99 6 4.98 6 6 C5.01 6 4.02 6 3 6 C3.33 6.99 3.66 7.98 4 9 C2.1875 8.8125 2.1875 8.8125 0 8 C-1.75 5.4375 -1.75 5.4375 -3 3 C-2.01 3 -1.02 3 0 3 C0 2.01 0 1.02 0 0 Z " fill="#F52843" transform="translate(67,199)"/>
<path d="M0 0 C0.66 0 1.32 0 2 0 C1.12381935 7.22849035 -2.82346533 12.25484322 -8 17 C-8.66 16.67 -9.32 16.34 -10 16 C-9.195625 15.278125 -8.39125 14.55625 -7.5625 13.8125 C-4.97707928 10.97484311 -4.31957187 9.72833853 -4 6 C-3.34 6 -2.68 6 -2 6 C-2 4.68 -2 3.36 -2 2 C-1.34 2 -0.68 2 0 2 C0 1.34 0 0.68 0 0 Z " fill="#F6A3B0" transform="translate(179,471)"/>
<path d="M0 0 C2.45432618 3.27243491 4.07091019 5.96063341 5.75 9.625 C6.19859375 10.58664062 6.6471875 11.54828125 7.109375 12.5390625 C7.40328125 13.35117187 7.6971875 14.16328125 8 15 C7.67 15.66 7.34 16.32 7 17 C5 15.6875 5 15.6875 3 14 C3 13.01 3 12.02 3 11 C2.34 11 1.68 11 1 11 C0.67 7.37 0.34 3.74 0 0 Z " fill="#FBEFB7" transform="translate(184,384)"/>
<path d="M0 0 C0.33 0 0.66 0 1 0 C1 2.31 1 4.62 1 7 C5.29 7 9.58 7 14 7 C13.67 8.65 13.34 10.3 13 12 C12.34 12 11.68 12 11 12 C11 11.34 11 10.68 11 10 C10.38511719 9.95101563 9.77023438 9.90203125 9.13671875 9.8515625 C8.32847656 9.77679688 7.52023438 9.70203125 6.6875 9.625 C5.48673828 9.52058594 5.48673828 9.52058594 4.26171875 9.4140625 C2 9 2 9 -1 7 C-0.67 4.69 -0.34 2.38 0 0 Z " fill="#E3CCF2" transform="translate(106,342)"/>
<path d="M0 0 C1.03769531 -0.02578125 2.07539063 -0.0515625 3.14453125 -0.078125 C6.54901636 0.28898251 8.41142285 1.3000752 11.1875 3.25 C8.1875 4.25 8.1875 4.25 6.2734375 3.3359375 C5.58507812 2.97757813 4.89671875 2.61921875 4.1875 2.25 C-0.42038417 1.52949448 -3.90375257 1.77815037 -8.0625 3.9375 C-10.80851811 6.24665159 -13.34931914 8.64192615 -15.8125 11.25 C-15.25247584 7.71340908 -14.13475676 6.29440308 -11.375 4.0625 C-10.75753906 3.55332031 -10.14007813 3.04414062 -9.50390625 2.51953125 C-6.28485023 0.10338066 -3.98675383 0.05899019 0 0 Z " fill="#F1D9F7" transform="translate(168.8125,33.75)"/>
<path d="M0 0 C1.23937726 2.47875453 1.00030297 3.99333468 0.875 6.75 C0.80943007 11.29399617 1.67857498 14.03423226 4 18 C4 18.99 4 19.98 4 21 C3.01 20.67 2.02 20.34 1 20 C-1.64790131 14.40998611 -2.51289873 10.15478474 -2 4 C-1 1.5 -1 1.5 0 0 Z " fill="#F9E694" transform="translate(133,164)"/>
<path d="M0 0 C0.625 1.8125 0.625 1.8125 1 4 C0.01 5.485 0.01 5.485 -1 7 C-1 8.32 -1 9.64 -1 11 C2.96 11.33 6.92 11.66 11 12 C11 12.33 11 12.66 11 13 C8.68756208 13.02685412 6.3750373 13.04632841 4.0625 13.0625 C2.77472656 13.07410156 1.48695312 13.08570313 0.16015625 13.09765625 C-3 13 -3 13 -4 12 C-3.631726 7.21243804 -2.74997245 3.94561264 0 0 Z " fill="#FBE9A3" transform="translate(109,435)"/>
<path d="M0 0 C3.99824088 3.66505414 6.60168569 7.11112852 9 12 C8.67 12.66 8.34 13.32 8 14 C5.69 13.67 3.38 13.34 1 13 C1 12.34 1 11.68 1 11 C1.66 11 2.32 11 3 11 C2.690625 9.741875 2.38125 8.48375 2.0625 7.1875 C1.88847656 6.47980469 1.71445312 5.77210938 1.53515625 5.04296875 C1.08989295 3.34316798 0.55566015 1.66698046 0 0 Z " fill="#D5B6E7" transform="translate(319,325)"/>
<path d="M0 0 C0 3 0 3 -1.5390625 4.75390625 C-5.52232409 8.20755815 -8.72504167 10.81313438 -14 12 C-13.67 11.34 -13.34 10.68 -13 10 C-12.34 10 -11.68 10 -11 10 C-10.95875 9.38125 -10.9175 8.7625 -10.875 8.125 C-10.58625 7.42375 -10.2975 6.7225 -10 6 C-8.01363702 5.29373761 -6.01151741 4.63106429 -4 4 C-1.66468542 2.00064306 -1.66468542 2.00064306 0 0 Z " fill="#F7A1B0" transform="translate(311,480)"/>
<path d="M0 0 C5.28 0 10.56 0 16 0 C16 7.875 16 7.875 12 12 C12.33 8.7 12.66 5.4 13 2 C8.71 1.67 4.42 1.34 0 1 C0 0.67 0 0.34 0 0 Z " fill="#FCDA6B" transform="translate(256,382)"/>
<path d="M0 0 C7.59 0 15.18 0 23 0 C22.34 1.65 21.68 3.3 21 5 C20.67 4.34 20.34 3.68 20 3 C17.96820406 2.53146291 17.96820406 2.53146291 15.52734375 2.3671875 C14.62822266 2.28339844 13.72910156 2.19960937 12.80273438 2.11328125 C11.38444336 1.99533203 11.38444336 1.99533203 9.9375 1.875 C8.98810547 1.78863281 8.03871094 1.70226562 7.06054688 1.61328125 C4.70764908 1.40045632 2.35431405 1.19642969 0 1 C0 0.67 0 0.34 0 0 Z " fill="#F4E6D6" transform="translate(97,218)"/>
<path d="M0 0 C2.82619863 2.82619863 3.81363347 6.26200296 5.1875 9.9375 C5.47302734 10.66646484 5.75855469 11.39542969 6.05273438 12.14648438 C8.12105341 17.63683977 8.12105341 17.63683977 7 21 C6.731875 20.236875 6.46375 19.47375 6.1875 18.6875 C5.22741872 16.00620795 5.22741872 16.00620795 3.4375 14.625 C1.17412504 12.06640222 1.33868799 9.33043195 1 6 C0.6725678 3.99902542 0.34123581 1.99866686 0 0 Z " fill="#DFC5EB" transform="translate(197,72)"/>
<path d="M0 0 C1.81826835 2.72740252 3.49660133 5.46870233 5.125 8.3125 C5.66382813 9.23675781 6.20265625 10.16101563 6.7578125 11.11328125 C8.13227712 14.30739871 8.2337642 16.55960085 8 20 C7.34 19.67 6.68 19.34 6 19 C5.4375 16.6875 5.4375 16.6875 5 14 C4.70194993 11.80252869 4.70194993 11.80252869 4 10 C3.01 9.67 2.02 9.34 1 9 C0.67 6.03 0.34 3.06 0 0 Z " fill="#E2CCEE" transform="translate(324,362)"/>
<path d="M0 0 C1.35281097 3.07457039 0.92902928 4.19516948 -0.25 7.4375 C-3.15762274 13.35658915 -3.15762274 13.35658915 -5 16 C-5.66 16 -6.32 16 -7 16 C-4.90143748 10.5787135 -2.60048066 5.20096132 0 0 Z " fill="#D0AFE2" transform="translate(114,358)"/>
<path d="M0 0 C0.66 0 1.32 0 2 0 C2 1.98 2 3.96 2 6 C1.34 6 0.68 6 0 6 C0 6.66 0 7.32 0 8 C-0.97648017 9.02297922 -1.98131338 10.01904252 -3 11 C-4.01800576 12.31963709 -5.02248365 13.65009646 -6 15 C-5.39644592 11.14974121 -4.23227397 8.13898841 -2.4375 4.6875 C-1.98246094 3.80449219 -1.52742188 2.92148438 -1.05859375 2.01171875 C-0.53458984 1.01591797 -0.53458984 1.01591797 0 0 Z " fill="#98C1F7" transform="translate(116,223)"/>
<path d="M0 0 C1.32 0 2.64 0 4 0 C4.125 2.875 4.125 2.875 4 6 C3.34 6.66 2.68 7.32 2 8 C1.87625 7.360625 1.7525 6.72125 1.625 6.0625 C1.41875 5.381875 1.2125 4.70125 1 4 C0.34 3.67 -0.32 3.34 -1 3 C-1.33 4.32 -1.66 5.64 -2 7 C-2.66 7 -3.32 7 -4 7 C-3.34 5.35 -2.68 3.7 -2 2 C-1.34 2 -0.68 2 0 2 C0 1.34 0 0.68 0 0 Z " fill="#3186F8" transform="translate(116,229)"/>
<path d="M0 0 C0 0.33 0 0.66 0 1 C-6.25948114 3.13391403 -12.42208127 3.58955515 -19 4 C-18 2 -18 2 -15.125 0.875 C-10.15670455 -0.45264471 -5.09968052 -0.16599322 0 0 Z " fill="#C08EBB" transform="translate(213,127)"/>
<path d="M0 0 C0 0.66 0 1.32 0 2 C0.66 2.33 1.32 2.66 2 3 C0.35 4.32 -1.3 5.64 -3 7 C-3 6.34 -3 5.68 -3 5 C-4.32 4.67 -5.64 4.34 -7 4 C-7 3.34 -7 2.68 -7 2 C-4 0 -4 0 0 0 Z " fill="#F34865" transform="translate(309,478)"/>
<path d="M0 0 C4.14277059 4.83323235 6.36937261 8.53597935 6 15 C5.01 15.495 5.01 15.495 4 16 C3.896875 14.948125 3.79375 13.89625 3.6875 12.8125 C3.01253443 9.06950909 1.96623977 7.16308137 0 4 C0 2.68 0 1.36 0 0 Z " fill="#FCF2CB" transform="translate(191,432)"/>
<path d="M0 0 C4.98435363 5.84372494 7.46912324 10.18127928 7 18 C6.34 17.67 5.68 17.34 5 17 C4.87625 15.948125 4.7525 14.89625 4.625 13.8125 C3.92972218 9.57130528 2.40441296 7.49027688 0 4 C0 2.68 0 1.36 0 0 Z " fill="#C1DAF8" transform="translate(239,266)"/>
<path d="M0 0 C7.59 0 15.18 0 23 0 C23 0.33 23 0.66 23 1 C16.07 1 9.14 1 2 1 C1.67 1.99 1.34 2.98 1 4 C0.34 4 -0.32 4 -1 4 C-0.67 2.68 -0.34 1.36 0 0 Z " fill="#3A88E2" transform="translate(119,219)"/>
<path d="M0 0 C1.9375 0.0625 1.9375 0.0625 4 1 C5.25 4.0625 5.25 4.0625 6 7 C5.34 6.67 4.68 6.34 4 6 C4 5.01 4 4.02 4 3 C2.35 3.66 0.7 4.32 -1 5 C-1 5.66 -1 6.32 -1 7 C-1.66 7 -2.32 7 -3 7 C-1.125 1.125 -1.125 1.125 0 0 Z " fill="#F12446" transform="translate(64,175)"/>
<path d="M0 0 C3.37462715 0.54723683 5.08235 1.0549 8 3 C8 3.66 8 4.32 8 5 C8.66 5 9.32 5 10 5 C10 5.66 10 6.32 10 7 C6.12697862 5.85569823 2.99736561 4.76679902 0 2 C0 1.34 0 0.68 0 0 Z " fill="#F0808E" transform="translate(263,484)"/>
<path d="M0 0 C0.95772637 2.56366999 1.13203743 3.66585264 0.109375 6.25390625 C-0.33921875 7.01574219 -0.7878125 7.77757812 -1.25 8.5625 C-1.68828125 9.32691406 -2.1265625 10.09132813 -2.578125 10.87890625 C-3.90092161 12.852199 -5.25757087 14.39594025 -7 16 C-5.60668753 10.04675579 -3.11464243 5.24258516 0 0 Z " fill="#FCF4C8" transform="translate(117,385)"/>
<path d="M0 0 C1.32 0.33 2.64 0.66 4 1 C3.67 1.99 3.34 2.98 3 4 C2.01 4 1.02 4 0 4 C0 4.99 0 5.98 0 7 C-0.99 7.33 -1.98 7.66 -3 8 C-3 6.35 -3 4.7 -3 3 C-2.34 3 -1.68 3 -1 3 C-0.67 2.01 -0.34 1.02 0 0 Z " fill="#1589FC" transform="translate(122,253)"/>
<path d="M0 0 C2 1 2 1 3.10546875 3.6171875 C3.64107422 5.22980469 3.64107422 5.22980469 4.1875 6.875 C4.55230469 7.94492188 4.91710937 9.01484375 5.29296875 10.1171875 C6 13 6 13 5 16 C2.38592128 10.63809899 0.50771472 5.96564796 0 0 Z " fill="#B388CE" transform="translate(201,87)"/>
<path d="M0 0 C1.89453748 2.84180622 3.00192814 5.31564815 4.1875 8.5 C4.55230469 9.4590625 4.91710937 10.418125 5.29296875 11.40625 C6 14 6 14 5 17 C3.74335022 14.09399739 3 12.20395416 3 9 C2.34 9 1.68 9 1 9 C0.67 6.03 0.34 3.06 0 0 Z " fill="#FDF4CE" transform="translate(233,175)"/>
<path d="M0 0 C0 0.33 0 0.66 0 1 C-1.258125 1.103125 -2.51625 1.20625 -3.8125 1.3125 C-6.60499657 1.64858808 -7.74433121 1.80025876 -10 3.5625 C-10.33 4.036875 -10.66 4.51125 -11 5 C-11 4.34 -11 3.68 -11 3 C-14.3 3.33 -17.6 3.66 -21 4 C-14.65939616 -0.22706923 -7.41567962 -0.2354184 0 0 Z " fill="#F7E58D" transform="translate(143,144)"/>
<path d="M0 0 C4.22489602 0.53280216 6.54080716 1.87678199 9.8125 4.5625 C10.60269531 5.20316406 11.39289063 5.84382813 12.20703125 6.50390625 C12.79871094 6.99761719 13.39039063 7.49132812 14 8 C13.01 8.495 13.01 8.495 12 9 C8.55110526 7.73540526 6.52223677 5.60105667 4 3 C2.68441297 1.97676564 1.35622245 0.96873032 0 0 Z " fill="#E8CFF0" transform="translate(286,290)"/>
<path d="M0 0 C0.33 1.32 0.66 2.64 1 4 C0.01 4.495 0.01 4.495 -1 5 C-1.66 4.34 -2.32 3.68 -3 3 C-3.66 3 -4.32 3 -5 3 C-5 4.32 -5 5.64 -5 7 C-5.99 7.33 -6.98 7.66 -8 8 C-7.34 5.69 -6.68 3.38 -6 1 C-3.92446352 0.4465236 -2.15634036 0 0 0 Z " fill="#3387F6" transform="translate(120,261)"/>
<path d="M0 0 C2.72138795 3.17495261 4.82820425 5.95197831 6 10 C5.67 10.99 5.34 11.98 5 13 C4.34 11.35 3.68 9.7 3 8 C2.34 8 1.68 8 1 8 C0.67 5.36 0.34 2.72 0 0 Z " fill="#BCDDF9" transform="translate(233,253)"/>
<path d="M0 0 C1 2 1 2 1 5 C4.3 5.33 7.6 5.66 11 6 C11 6.33 11 6.66 11 7 C6.71 7 2.42 7 -2 7 C-1 1 -1 1 0 0 Z " fill="#F5DA67" transform="translate(243,407)"/>
<path d="M0 0 C1.343231 2.686462 0.67960047 3.69297114 -0.25 6.5 C-0.62898438 7.69109375 -0.62898438 7.69109375 -1.015625 8.90625 C-2 11 -2 11 -5 13 C-4.39254603 8.14036821 -2.27241033 4.2594482 0 0 Z " fill="#FEE265" transform="translate(267,394)"/>
<path d="M0 0 C2.64 0.33 5.28 0.66 8 1 C7.43628586 4.26954202 6.50037734 5.82575883 4 8 C4 6.02 4 4.04 4 2 C2.68 1.34 1.36 0.68 0 0 Z " fill="#9C5FC2" transform="translate(168,35)"/>
<path d="M0 0 C3 1 3 1 4 3 C4.039992 4.99960012 4.04346799 7.00047242 4 9 C3.01 8.67 2.02 8.34 1 8 C0.67 5.36 0.34 2.72 0 0 Z " fill="#F9E99D" transform="translate(187,427)"/>
<path d="M0 0 C0.33 0 0.66 0 1 0 C1.125 5.75 1.125 5.75 0 8 C-0.66 8 -1.32 8 -2 8 C-2 8.66 -2 9.32 -2 10 C-2.66 10 -3.32 10 -4 10 C-2.99806563 6.20696275 -2.18975773 3.28463659 0 0 Z " fill="#CCA8E1" transform="translate(115,291)"/>
<path d="M0 0 C0.33 0 0.66 0 1 0 C1.53122363 1.76774419 2.04964073 3.53934083 2.5625 5.3125 C2.85253906 6.29863281 3.14257812 7.28476563 3.44140625 8.30078125 C4 11 4 11 3 14 C2.34 12.35 1.68 10.7 1 9 C0.34 9 -0.32 9 -1 9 C-0.67 6.03 -0.34 3.06 0 0 Z " fill="#FAE38C" transform="translate(219,135)"/>
<path d="M0 0 C0.33 0 0.66 0 1 0 C1 2.31 1 4.62 1 7 C-3.29 7 -7.58 7 -12 7 C-12 6.67 -12 6.34 -12 6 C-8.7 5.67 -5.4 5.34 -2 5 C-1.34 3.35 -0.68 1.7 0 0 Z " fill="#FAE69D" transform="translate(194,441)"/>
<path d="M0 0 C2.12508244 3.18762365 2.5020163 5.26512223 3 9 C1.35 9.33 -0.3 9.66 -2 10 C-1.34 9.67 -0.68 9.34 0 9 C0 6.03 0 3.06 0 0 Z " fill="#F7EBB0" transform="translate(244,208)"/>
<path d="M0 0 C0.66 0.99 1.32 1.98 2 3 C1.67 3.99 1.34 4.98 1 6 C0.65772583 7.33106622 0.32248257 8.66400079 0 10 C-0.66 10 -1.32 10 -2 10 C-2.6875 8.375 -2.6875 8.375 -3 6 C-1.5625 2.75 -1.5625 2.75 0 0 Z " fill="#FAD954" transform="translate(254,384)"/>
<path d="M0 0 C1.27351308 2.54702616 0.80191925 3.4282945 0.0625 6.125 C-0.13214844 6.84945313 -0.32679687 7.57390625 -0.52734375 8.3203125 C-0.68332031 8.87460937 -0.83929688 9.42890625 -1 10 C-1.99 9.67 -2.98 9.34 -4 9 C-2.94124926 5.59687262 -1.99097846 2.98646769 0 0 Z " fill="#FEDE63" transform="translate(127,437)"/>
<path d="M0 0 C0.33 0 0.66 0 1 0 C1 1.65 1 3.3 1 5 C0.34 5 -0.32 5 -1 5 C-1 6.32 -1 7.64 -1 9 C-1.99 9.33 -2.98 9.66 -4 10 C-3.52449439 8.51965236 -3.04448784 7.04074979 -2.5625 5.5625 C-2.29566406 4.73878906 -2.02882813 3.91507812 -1.75390625 3.06640625 C-1 1 -1 1 0 0 Z " fill="#F8DB65" transform="translate(114,427)"/>
<path d="M0 0 C1.98 0.99 1.98 0.99 4 2 C4 2.66 4 3.32 4 4 C4.66 4 5.32 4 6 4 C5.67 5.32 5.34 6.64 5 8 C5 7.34 5 6.68 5 6 C4.360625 5.7525 3.72125 5.505 3.0625 5.25 C1 4 1 4 0.25 1.875 C0.1675 1.25625 0.085 0.6375 0 0 Z " fill="#F9E48C" transform="translate(314,383)"/>
<path d="M0 0 C4.50802601 1.25805377 7.4912812 2.90407165 11 6 C6.48986609 5.46939601 3.61621781 3.69113883 0 1 C0 0.67 0 0.34 0 0 Z " fill="#F8ADB4" transform="translate(69,208)"/>
<path d="M0 0 C0.33 2.64 0.66 5.28 1 8 C-1.52588702 5.63707344 -2.88820837 4.33537489 -4 1 C-1 0 -1 0 0 0 Z " fill="#EB2646" transform="translate(262,474)"/>
<path d="M0 0 C0.33 0 0.66 0 1 0 C1 1.65 1 3.3 1 5 C-0.65 5.33 -2.3 5.66 -4 6 C-3.67 4.68 -3.34 3.36 -3 2 C-2.01 2 -1.02 2 0 2 C0 1.34 0 0.68 0 0 Z " fill="#5F9FF6" transform="translate(118,256)"/>
<path d="M0 0 C2.31 1.98 4.62 3.96 7 6 C6.34 6.66 5.68 7.32 5 8 C4.54625 7.525625 4.0925 7.05125 3.625 6.5625 C2.06741796 4.90972192 2.06741796 4.90972192 0 4 C0 2.68 0 1.36 0 0 Z " fill="#F41C44" transform="translate(144,481)"/>
<path d="M0 0 C0.66 0 1.32 0 2 0 C1.125 4.75 1.125 4.75 0 7 C-0.66 7 -1.32 7 -2 7 C-1.125 2.25 -1.125 2.25 0 0 Z " fill="#F81937" transform="translate(268,466)"/>
<path d="M0 0 C0.33 0 0.66 0 1 0 C1.125 5.75 1.125 5.75 0 8 C-1.32 8 -2.64 8 -4 8 C-4 7.34 -4 6.68 -4 6 C-3.34 6 -2.68 6 -2 6 C-2 5.34 -2 4.68 -2 4 C-1.34 4 -0.68 4 0 4 C0 2.68 0 1.36 0 0 Z " fill="#FCD856" transform="translate(249,428)"/>
<path d="M0 0 C1.5 1.1875 1.5 1.1875 3 3 C3.1875 5.6875 3.1875 5.6875 3 8 C2.01 8.495 2.01 8.495 1 9 C0.01 8.34 -0.98 7.68 -2 7 C-1.01 7 -0.02 7 1 7 C0.67 4.69 0.34 2.38 0 0 Z " fill="#71A5E9" transform="translate(242,275)"/>
<path d="M0 0 C0.99 0.33 1.98 0.66 3 1 C3 2.32 3 3.64 3 5 C3.66 5.33 4.32 5.66 5 6 C3.35 6 1.7 6 0 6 C0 4.02 0 2.04 0 0 Z " fill="#FDD751" transform="translate(232,212)"/>
<path d="M0 0 C2.475 0.495 2.475 0.495 5 1 C5.66 2.98 6.32 4.96 7 7 C6.34 7 5.68 7 5 7 C3.96210419 5.35666496 2.96432076 3.68756133 2 2 C1.34 1.34 0.68 0.68 0 0 Z " fill="#7AA7E5" transform="translate(228,219)"/>
<path d="M0 0 C3.14624993 -0.26218749 4.61837017 -0.24754367 7.3125 1.5 C8.1478125 2.2425 8.1478125 2.2425 9 3 C6.03 2.67 3.06 2.34 0 2 C0 1.34 0 0.68 0 0 Z " fill="#EB7B86" transform="translate(80,213)"/>
<path d="M0 0 C-0.375 1.9375 -0.375 1.9375 -1 4 C-1.99 4.495 -1.99 4.495 -3 5 C-3 4.34 -3 3.68 -3 3 C-4.32 2.67 -5.64 2.34 -7 2 C-4 0 -4 0 0 0 Z " fill="#F78298" transform="translate(86,159)"/>
</svg>
